<svg width="114" height="105" viewBox="0 0 114 105" fill="none" xmlns="http://www.w3.org/2000/svg">
<path d="M37.8363 93.0641C43.1817 83.9907 40.1936 72.2819 31.1622 66.9117C22.1308 61.5415 10.4761 64.5435 5.13067 73.6168L40.3777 12.3879C37.1148 18.3706 37.2778 25.6479 40.8053 31.4772C40.544 31.4772 41.2328 32.1453 57.0749 59.8248L37.8363 93.0641Z" fill="#FEDE00"/>
<path d="M111.631 83.5193C111.631 103.038 85.8135 109.767 76.1704 93.0639C39.6171 29.4249 40.5434 31.3577 40.7334 31.3577C36.8428 25.4287 36.5499 17.8199 39.973 11.6067C43.3962 5.39342 49.9694 1.60278 57.0363 1.76678C64.1031 1.93078 70.4951 6.02229 73.6291 12.3877C111.631 78.4606 111.631 76.3608 111.631 83.5193Z" fill="#0379A3"/>
<path d="M111.632 83.5194C111.64 85.8278 111.221 88.1174 110.397 90.2723C106.168 94.2681 100.352 96.1021 94.6081 95.2512C88.8643 94.4003 83.823 90.9579 80.9216 85.9056C44.3682 22.2666 45.2945 24.1994 45.4846 24.1994C42.4477 19.1617 41.8955 12.9977 43.9882 7.49622C48.2923 3.47808 54.2046 1.68639 60.0025 2.64317C65.8003 3.59995 70.8314 7.19759 73.6299 12.3879C111.632 78.4608 111.632 76.3609 111.632 83.5194Z" fill="#0093C8"/>
<path d="M54.2723 54.8854C45.9445 69.4101 29.6101 77.3264 13.1111 74.8338L5.13067 73.6168L40.3777 12.3879C37.1148 18.3706 37.2778 25.6479 40.8053 31.4772C40.4965 31.3579 40.5915 31.167 54.2723 54.8854Z" fill="#F5E25C"/>
<path d="M40.3774 83.5193C40.3655 86.868 39.4899 90.1565 37.836 93.0639C28.1454 109.934 2.37514 102.99 2.37514 83.5193C2.37514 72.9766 10.8822 64.43 21.3762 64.43C31.8703 64.43 40.3774 72.9766 40.3774 83.5193Z" fill="#22CB52"/>
<path d="M38.0027 93.0641C21.163 102.609 2.37561 83.5194 11.9949 66.9356C28.5021 57.2716 47.5032 76.3609 38.0027 93.0641Z" fill="#00FF49"/>
<path d="M111.133 72.7578C83.5337 24.7481 70.7554 0.504689 68.1428 3.12947C63.1493 0.076945 57.1295 -0.788111 51.4845 0.735622C45.8395 2.25936 41.0618 6.03899 38.2636 11.1947C34.6533 17.3987 51.2318 -11.4261 3.064 72.4237C1.04963 75.7701 -0.0103039 79.6086 7.55038e-05 83.5193C7.55038e-05 105.448 29.0243 113.156 39.8787 94.2571C41.565 91.2982 33.7983 104.852 57.0034 64.43L74.1044 94.2571C80.0073 104.53 93.0816 108.05 103.307 102.119C113.532 96.1892 117.036 83.0542 111.133 72.7816V72.7578ZM21.3763 100.222C15.4331 100.229 9.93834 97.0482 6.96386 91.879C3.98938 86.7098 3.98762 80.3386 6.95923 75.1678C7.02041 75.0676 7.07592 74.964 7.12549 74.8576C17.1248 58.2737 43.1088 69.5603 37.1472 88.5542C34.9705 95.4718 28.5978 100.187 21.3763 100.222ZM42.4913 80.1787C41.4869 73.7735 37.6556 68.167 32.0665 64.924C26.4774 61.681 19.729 61.1487 13.7046 63.4756L35.8884 24.8674C36.7672 30.4511 38.4298 32.1691 54.2482 59.7293L42.4913 80.1787ZM92.6305 100.222C86.6924 100.221 81.2061 97.0373 78.2371 91.8709C38.9048 23.4357 40.3774 27.4922 40.3774 21.4791C40.3811 15.5673 43.495 10.0979 48.5653 7.09747C53.6355 4.09708 59.9068 4.01276 65.0551 6.87575C70.0904 9.11874 69.3304 9.54825 106.881 74.8576C109.998 80.0204 110.099 86.4713 107.144 91.7297C104.19 96.9881 98.6408 100.235 92.6305 100.222Z" fill="#090D18"/>
</svg>
