<svg width="513" height="513" viewBox="0 0 513 513" fill="none" xmlns="http://www.w3.org/2000/svg">
<path d="M452.68 115.88H60.6803C56.3504 115.88 52.8403 119.39 52.8403 123.72V437.32C52.8403 441.65 56.3504 445.16 60.6803 445.16H452.68C457.01 445.16 460.52 441.65 460.52 437.32V123.72C460.52 119.39 457.01 115.88 452.68 115.88Z" fill="#F5E25C"/>
<path d="M84.2003 405.96H429.16C446.48 405.96 460.52 420 460.52 437.32V445.16H52.8403V437.32C52.8403 420 66.8807 405.96 84.2003 405.96Z" fill="#FEDE00"/>
<path d="M460.52 115.88H60.6802L123.4 68.8401H405.64L460.52 115.88Z" fill="#DBA508"/>
<path d="M288.04 202.12V120.976C288.024 117.616 287.468 114.281 286.394 111.098L275.888 79.7377C273.822 73.2855 267.845 68.89 261.07 68.8401H236.61C229.848 68.834 223.844 73.1632 221.714 79.5809L211.208 110.941C210.144 114.179 209.614 117.568 209.64 120.976V202.12C209.64 206.45 213.15 209.96 217.48 209.96H280.2C284.53 209.96 288.04 206.45 288.04 202.12Z" fill="#DB4747"/>
<path d="M99.8799 257H162.6V288.36C162.6 305.68 148.56 319.72 131.24 319.72C113.92 319.72 99.8799 305.68 99.8799 288.36V257ZM209.64 304.04H303.72C303.72 278.061 282.659 257 256.68 257C230.7 257 209.64 278.061 209.64 304.04Z" fill="#0093C8"/>
<path d="M123.4 390.75C119.07 390.75 115.56 394.26 115.56 398.59V414.27C115.56 418.6 119.07 422.11 123.4 422.11C127.73 422.11 131.24 418.6 131.24 414.27V398.59C131.24 394.26 127.73 390.75 123.4 390.75ZM84.1999 390.75C79.87 390.75 76.3599 394.26 76.3599 398.59V414.27C76.3599 418.6 79.87 422.11 84.1999 422.11C88.5297 422.11 92.0399 418.6 92.0399 414.27V398.59C92.0399 394.26 88.5297 390.75 84.1999 390.75ZM162.6 390.75C158.27 390.75 154.76 394.26 154.76 398.59V414.27C154.76 418.6 158.27 422.11 162.6 422.11C166.93 422.11 170.44 418.6 170.44 414.27V398.59C170.44 394.26 166.93 390.75 162.6 390.75ZM201.8 390.75C197.47 390.75 193.96 394.26 193.96 398.59V414.27C193.96 418.6 197.47 422.11 201.8 422.11C206.13 422.11 209.64 418.6 209.64 414.27V398.59C209.64 394.26 206.13 390.75 201.8 390.75ZM241 390.75C236.67 390.75 233.16 394.26 233.16 398.59V414.27C233.16 418.6 236.67 422.11 241 422.11C245.33 422.11 248.84 418.6 248.84 414.27V398.59C248.84 394.26 245.33 390.75 241 390.75ZM280.2 390.75C275.87 390.75 272.36 394.26 272.36 398.59V414.27C272.36 418.6 275.87 422.11 280.2 422.11C284.53 422.11 288.04 418.6 288.04 414.27V398.59C288.04 394.26 284.53 390.75 280.2 390.75ZM319.4 390.75C315.07 390.75 311.56 394.26 311.56 398.59V414.27C311.56 418.6 315.07 422.11 319.4 422.11C323.73 422.11 327.24 418.6 327.24 414.27V398.59C327.24 394.26 323.73 390.75 319.4 390.75ZM358.6 390.75C354.27 390.75 350.76 394.26 350.76 398.59V414.27C350.76 418.6 354.27 422.11 358.6 422.11C362.93 422.11 366.44 418.6 366.44 414.27V398.59C366.44 394.26 362.93 390.75 358.6 390.75ZM397.8 390.75C393.47 390.75 389.96 394.26 389.96 398.59V414.27C389.96 418.6 393.47 422.11 397.8 422.11C402.13 422.11 405.64 418.6 405.64 414.27V398.59C405.64 394.26 402.13 390.75 397.8 390.75ZM437 390.75C432.67 390.75 429.16 394.26 429.16 398.59V414.27C429.16 418.6 432.67 422.11 437 422.11C441.33 422.11 444.84 418.6 444.84 414.27V398.59C444.84 394.26 441.33 390.75 437 390.75ZM413.48 108.51H382.12C377.79 108.51 374.28 112.02 374.28 116.35C374.28 120.68 377.79 124.19 382.12 124.19H413.48C417.81 124.19 421.32 120.68 421.32 116.35C421.32 112.02 417.81 108.51 413.48 108.51Z" fill="#404040"/>
<path d="M452.68 100.2L410.893 68.84C404.107 63.751 395.854 61 387.373 61H125.987C117.505 61 109.253 63.751 102.467 68.84L60.68 100.2C50.8092 107.603 45 119.221 45 131.56V429.48C45 442.47 55.5303 453 68.52 453H444.84C457.83 453 468.36 442.47 468.36 429.48V131.56C468.36 119.221 462.551 107.603 452.68 100.2ZM261.07 76.68C264.584 76.4966 267.789 78.6763 268.91 82.0112L277.77 108.51L279.416 113.528C280.194 115.934 280.591 118.447 280.592 120.976V202.12H217.48V120.976C217.481 118.447 217.878 115.934 218.656 113.528L220.302 108.51L229.162 82.0112C230.283 78.6763 233.488 76.4966 237.002 76.68H261.07ZM112.11 81.384C116.182 78.3306 121.133 76.68 126.222 76.68H214.501L203.995 108.04H75.7328L112.11 81.384ZM452.68 429.48C452.68 433.81 449.17 437.32 444.84 437.32H68.52C64.1901 437.32 60.68 433.81 60.68 429.48V131.56C60.7278 129.048 61.1778 126.56 62.0128 124.19H201.8V202.12C201.8 210.78 208.82 217.8 217.48 217.8H280.2C288.86 217.8 295.88 210.78 295.88 202.12V124.19H350.76C355.09 124.19 358.6 120.68 358.6 116.35C358.6 112.021 355.09 108.51 350.76 108.51H293.842L283.336 76.68H387.373C392.462 76.68 397.414 78.3306 401.485 81.384L443.272 112.744C449.194 117.186 452.68 124.157 452.68 131.56V429.48Z" fill="#404040"/>
<path d="M162.6 249.16H99.88C95.5502 249.16 92.04 252.67 92.04 257V288.36C92.0362 306.99 105.146 323.05 123.4 326.776V358.92H115.56C111.23 358.92 107.72 362.43 107.72 366.76C107.72 371.09 111.23 374.6 115.56 374.6H146.92C151.25 374.6 154.76 371.09 154.76 366.76C154.76 362.43 151.25 358.92 146.92 358.92H139.08V326.776C157.334 323.05 170.444 306.99 170.44 288.36V257C170.44 252.67 166.93 249.16 162.6 249.16ZM154.76 288.36C154.76 301.35 144.23 311.88 131.24 311.88C118.25 311.88 107.72 301.35 107.72 288.36V264.84H154.76V288.36ZM256.68 249.16C226.371 249.16 201.8 273.731 201.8 304.04C201.8 308.37 205.31 311.88 209.64 311.88H248.84V351.08C248.84 355.41 245.33 358.92 241 358.92C236.67 358.92 233.16 355.41 233.16 351.08C233.16 346.75 229.65 343.24 225.32 343.24C220.99 343.24 217.48 346.75 217.48 351.08C217.48 364.07 228.01 374.6 241 374.6C253.99 374.6 264.52 364.07 264.52 351.08V311.88H303.72C308.05 311.88 311.56 308.37 311.56 304.04C311.56 273.731 286.989 249.16 256.68 249.16ZM218.264 296.2C221.974 277.93 238.037 264.801 256.68 264.801C275.323 264.801 291.386 277.93 295.096 296.2H218.264Z" fill="#404040"/>
</svg>
