<svg width="513" height="513" viewBox="0 0 513 513" fill="none" xmlns="http://www.w3.org/2000/svg">
<path d="M366.097 60.5039H62.445C54.3837 60.4467 46.6363 63.6252 40.9378 69.3275C35.2394 75.0297 32.0662 82.7793 32.1287 90.8405V476.228C32.0544 484.321 35.214 492.109 40.9061 497.863C46.5982 503.616 54.3516 506.859 62.445 506.871H366.097C383.03 506.876 396.763 493.161 396.781 476.228V90.8405C396.761 82.7408 393.51 74.984 387.75 69.2894C381.99 63.5947 374.197 60.4326 366.097 60.5039Z" fill="#C9D4E0"/>
<path d="M497.086 256.078C484.667 243.667 464.543 243.658 452.113 256.058L431.234 276.905L431.275 276.946L476.218 321.889L476.259 321.93L497.107 301.042C509.508 288.616 509.499 268.493 497.086 256.078Z" fill="#08A1DB"/>
<path d="M353.575 444.789L308.397 399.611L308.335 399.59L295.435 434.983L318.182 457.73L353.585 444.83L353.575 444.789Z" fill="#C79A83"/>
<path d="M318.181 457.73L282.4 470.764L295.434 434.983L318.181 457.73Z" fill="#08A1DB"/>
<path d="M476.219 321.889L453.911 299.581L331.134 422.348L353.575 444.789L353.585 444.83L353.606 444.819L476.26 321.93L476.219 321.889Z" fill="#DB4747"/>
<path d="M431.275 276.946L431.235 276.906L308.346 399.56L308.335 399.59L308.397 399.611L331.134 422.348L453.911 299.581L431.275 276.946Z" fill="#FF8F6B"/>
<path d="M158.797 386.475H92.8838V452.399H158.797V386.475Z" fill="#C9D4E0"/>
<path d="M62.7718 476.228V90.8401C62.7092 82.7788 65.8825 75.0293 71.5809 69.327C77.2793 63.6248 85.0267 60.4463 93.088 60.5034H62.445C54.3837 60.4463 46.6363 63.6248 40.9378 69.327C35.2394 75.0293 32.0662 82.7788 32.1287 90.8401V476.228C32.0544 484.321 35.214 492.109 40.9061 497.862C46.5982 503.616 54.3516 506.859 62.445 506.871H93.088C84.9947 506.859 77.2413 503.616 71.5492 497.862C65.8571 492.109 62.6975 484.321 62.7718 476.228Z" fill="#9AB1B7"/>
<path d="M340.674 15.7445C334.761 9.7379 326.683 6.35921 318.254 6.36769C309.789 6.37707 301.677 9.75854 295.711 15.7642C289.746 21.7698 286.419 29.9046 286.467 38.3693V87.0612H349.796V38.3693C349.897 29.9125 346.613 21.7663 340.674 15.7445Z" fill="#08A1DB"/>
<path d="M109.594 6.36773C92.2214 6.36094 78.1255 20.4249 78.0928 37.7973V87.0612H141.422V37.7973C141.234 20.3624 127.03 6.33644 109.594 6.36773Z" fill="#08A1DB"/>
<path d="M60.7292 109.533C64.1139 109.533 66.8578 106.789 66.8578 103.404V101.361C66.8578 97.9765 64.1139 95.2327 60.7292 95.2327C57.3445 95.2327 54.6006 97.9765 54.6006 101.361V103.404C54.6006 106.789 57.3445 109.533 60.7292 109.533Z" fill="#404040"/>
<path d="M54.6006 217.805C54.6006 221.19 57.3445 223.934 60.7292 223.934C64.1139 223.934 66.8578 221.19 66.8578 217.805V123.833C66.8578 120.448 64.1139 117.704 60.7292 117.704C57.3445 117.704 54.6006 120.448 54.6006 123.833V217.805Z" fill="#404040"/>
<path d="M86.2646 335.338C86.2646 338.724 89.4965 341.399 92.8815 341.399H158.798C160.415 341.414 161.971 340.782 163.12 339.644C164.269 338.506 164.915 336.956 164.915 335.338V324.488C164.915 321.103 162.171 318.359 158.787 318.359C155.402 318.359 152.658 321.103 152.658 324.488V329.141H98.5219V276.027H147.289C150.674 276.027 153.418 273.283 153.418 269.898C153.418 266.513 150.674 263.77 147.289 263.77H92.8815C89.4965 263.77 86.2646 266.037 86.2646 269.422V335.338Z" fill="#404040"/>
<path d="M160.575 281.504L136.11 302.017L127.749 293.657C126.205 292.088 123.938 291.467 121.81 292.031C119.682 292.596 118.02 294.258 117.456 296.386C116.893 298.514 117.514 300.781 119.083 302.325L131.412 314.654C133.659 316.902 137.251 317.06 139.685 315.017L168.455 290.897C171.05 288.722 171.391 284.856 169.217 282.261C167.042 279.666 163.176 279.325 160.581 281.499L160.575 281.504Z" fill="#404040"/>
<path d="M197.133 293.391H288.489C291.874 293.391 294.617 290.647 294.617 287.262C294.617 283.878 291.874 281.134 288.489 281.134H197.133C193.748 281.134 191.004 283.878 191.004 287.262C191.004 290.647 193.748 293.391 197.133 293.391Z" fill="#404040"/>
<path d="M197.133 323.013H335.662C339.046 323.013 341.79 320.269 341.79 316.884C341.79 313.499 339.046 310.755 335.662 310.755H197.133C193.748 310.755 191.004 313.499 191.004 316.884C191.004 320.269 193.748 323.013 197.133 323.013Z" fill="#404040"/>
<path d="M86.2646 452.735C86.2646 456.12 89.0085 458.864 92.3933 458.864H158.787C162.171 458.864 164.915 456.12 164.915 452.735V386.342C164.915 382.957 162.171 380.213 158.787 380.213H92.3933C89.0085 380.213 86.2646 382.957 86.2646 386.342V452.735ZM98.5219 392.471H152.658V446.607H98.5219V392.471Z" fill="#404040"/>
<path d="M197.133 410.856H288.489C291.874 410.856 294.617 408.112 294.617 404.728C294.617 401.343 291.874 398.599 288.489 398.599H197.133C193.748 398.599 191.004 401.343 191.004 404.728C191.004 408.112 193.748 410.856 197.133 410.856Z" fill="#404040"/>
<path d="M147.289 147.326H92.8815C89.3202 147.483 86.4586 150.316 86.2646 153.875V219.793C86.2646 223.177 89.4965 225.977 92.8815 225.977H158.798C162.191 225.949 164.924 223.186 164.915 219.793V208.941C164.915 205.556 162.171 202.812 158.787 202.812C155.402 202.812 152.658 205.556 152.658 208.941V213.719H98.5219V159.583H147.289C150.674 159.583 153.418 156.839 153.418 153.455C153.418 150.07 150.674 147.326 147.289 147.326Z" fill="#404040"/>
<path d="M169.205 166.717C167.03 164.124 163.165 163.784 160.572 165.958L136.11 186.471L127.749 178.111C125.346 175.773 121.511 175.799 119.141 178.17C116.771 180.54 116.745 184.376 119.083 186.778L131.412 199.113C133.658 201.361 137.25 201.519 139.685 199.476L168.455 175.356C169.701 174.31 170.48 172.812 170.621 171.192C170.761 169.571 170.252 167.962 169.205 166.717Z" fill="#404040"/>
<path d="M197.133 177.969H288.489C291.874 177.969 294.617 175.225 294.617 171.84C294.617 168.456 291.874 165.712 288.489 165.712H197.133C193.748 165.712 191.004 168.456 191.004 171.84C191.004 175.225 193.748 177.969 197.133 177.969Z" fill="#404040"/>
<path d="M197.133 207.59H335.662C339.046 207.59 341.79 204.847 341.79 201.462C341.79 198.077 339.046 195.333 335.662 195.333H197.133C193.748 195.333 191.004 198.077 191.004 201.462C191.004 204.847 193.748 207.59 197.133 207.59Z" fill="#404040"/>
<path d="M447.809 251.717L402.91 296.558V90.8404C402.879 81.1186 398.979 71.809 392.072 64.9672C385.165 58.1255 375.819 54.3143 366.097 54.3751H355.924V38.3651C355.924 17.4926 339.003 0.572005 318.131 0.572005C297.258 0.572005 280.338 17.4926 280.338 38.3651V54.3751H147.551V37.7931C147.551 16.9206 130.63 0 109.758 0C88.8852 0 71.9646 16.9206 71.9646 37.7931V54.3751H62.4448C42.3169 54.3751 26 70.692 26 90.82V125.876C26 129.26 28.7439 132.004 32.1286 132.004C35.5134 132.004 38.2572 129.26 38.2572 125.876V90.8404C38.2572 77.4707 49.0955 66.6324 62.4653 66.6324H71.9646V86.6066C71.9981 90.1102 74.7413 92.9883 78.2393 93.1897H141.09C144.626 93.0041 147.432 90.1449 147.551 86.6066V66.6324H280.338V86.6066C280.338 89.9916 282.924 93.1897 286.309 93.1897H350.306C353.691 93.1897 355.924 89.9916 355.924 86.6066V66.6324H366.097C372.57 66.5671 378.801 69.0854 383.41 73.6294C388.019 78.1735 390.626 84.368 390.653 90.8404V308.788L304.035 395.222C303.397 395.855 302.906 396.619 302.595 397.461L291.386 428.221H197.132C193.748 428.221 191.004 430.965 191.004 434.349C191.004 437.734 193.748 440.478 197.132 440.478H286.917L276.642 468.67C275.828 470.907 276.383 473.414 278.067 475.098C279.75 476.783 282.257 477.339 284.495 476.526L355.699 450.581C356.541 450.274 357.305 449.785 357.938 449.151L390.653 416.372V476.228C390.653 489.767 379.677 500.743 366.138 500.743H62.4448C49.0864 500.743 38.2572 489.914 38.2572 476.555V168.776C38.2572 165.391 35.5134 162.647 32.1286 162.647C28.7439 162.647 26 165.391 26 168.776V476.555C26 496.683 42.3169 513 62.4448 513H366.097C386.404 512.941 402.851 496.494 402.91 476.187V404.092L501.445 305.375C516.262 290.564 516.266 266.546 501.455 251.729C486.644 236.912 462.626 236.908 447.809 251.719V251.717ZM135.294 80.9325H84.2219V37.7931C84.2219 23.69 95.6547 12.2572 109.758 12.2572C123.861 12.2572 135.294 23.69 135.294 37.7931V80.9325ZM343.667 80.9325H292.595V38.3651C292.595 24.2621 304.028 12.8292 318.131 12.8292C332.234 12.8292 343.667 24.2621 343.667 38.3651V80.9325ZM431.231 285.563L445.239 299.573L331.134 413.68L317.017 399.563L431.231 285.563ZM292.66 460.498L297.902 446.114L307.044 455.256L292.66 460.498ZM319.749 450.627L302.532 433.411L310.813 410.688L342.472 442.346L319.749 450.627ZM353.6 436.14L339.801 422.342L453.907 308.24L467.594 321.932L353.6 436.14ZM492.77 296.714L476.259 313.257L439.905 276.904L456.446 260.399C466.49 250.45 482.686 250.488 492.683 260.485C502.679 270.481 502.718 286.677 492.769 296.721L492.77 296.714Z" fill="#404040"/>
</svg>
