<svg width="110" height="116" viewBox="0 0 110 116" fill="none" xmlns="http://www.w3.org/2000/svg">
<path d="M45.375 116C59.8034 116 71.5 104.253 71.5 89.7619C71.5 75.271 59.8034 63.5238 45.375 63.5238C30.9466 63.5238 19.25 75.271 19.25 89.7619C19.25 104.253 30.9466 116 45.375 116Z" fill="#C9D4E0"/>
<path d="M45.375 110.476C56.7659 110.476 66 101.202 66 89.7619C66 78.3217 56.7659 69.0476 45.375 69.0476C33.9841 69.0476 24.75 78.3217 24.75 89.7619C24.75 101.202 33.9841 110.476 45.375 110.476Z" fill="#B2BBC7"/>
<path d="M38.819 100.337V96.3905C40.2463 97.2688 41.7643 97.7051 43.3758 97.7051C44.5885 97.7051 45.5373 97.4151 46.222 96.8351C46.9068 96.2551 47.2477 95.468 47.2477 94.4737C47.2477 92.3968 45.7875 91.361 42.867 91.361C41.9155 91.361 40.766 91.4494 39.4185 91.6234V79.9129H50.974V83.6857H43.3483V87.8811C43.9588 87.8231 44.5363 87.7927 45.0808 87.7927C47.2258 87.7927 48.9033 88.3589 50.116 89.4885C51.3288 90.6209 51.9365 92.1399 51.9365 94.0511C51.9365 96.164 51.2132 97.893 49.7668 99.2325C48.3203 100.575 46.3623 101.243 43.8872 101.243C41.8742 101.243 40.1857 100.939 38.819 100.337Z" fill="#C9D4E0"/>
<path d="M19.3765 87.2513C25.377 90.7175 32.1448 92.9989 39.391 93.67C45.9938 100.763 54.8955 105.629 64.8973 107.156C68.992 102.525 71.5 96.443 71.5 89.7619C71.5 75.271 59.8034 63.5238 45.375 63.5238C31.79 63.5238 20.636 73.9389 19.3765 87.2513Z" fill="black"/>
<path d="M19.9815 84.3817C26.103 88.0882 33.1238 90.4551 40.6615 90.9744C47.19 98.4039 56.3585 103.406 66.682 104.588C69.6932 100.442 71.5 95.3189 71.5 89.7619C71.5 75.271 59.8034 63.5238 45.375 63.5238C32.8048 63.5238 22.3355 72.5028 19.9815 84.3817Z" fill="black"/>
<path d="M71.5 102.19C92.763 102.19 110 84.8788 110 63.5238C110 42.1688 92.763 24.8571 71.5 24.8571C50.237 24.8571 33 42.1688 33 63.5238C33 84.8788 50.237 102.19 71.5 102.19Z" fill="#FF8F6B"/>
<path d="M71.5 96.6667C89.7254 96.6667 104.5 81.8281 104.5 63.5238C104.5 45.2195 89.7254 30.3809 71.5 30.3809C53.2746 30.3809 38.5 45.2195 38.5 63.5238C38.5 81.8281 53.2746 96.6667 71.5 96.6667Z" fill="#DB4747"/>
<path d="M68.8573 78.184H52.6598V73.7014H57.9645V57.6851L52.5168 58.87V54.2797L63.5882 52.037V73.7014H68.8573V78.184Z" fill="#DBA508"/>
<path d="M81.0535 78.6314C74.9568 78.6314 71.9098 74.3339 71.9098 65.7361C71.9098 61.2756 72.7348 57.8785 74.382 55.5391C76.032 53.2026 78.4218 52.0315 81.5513 52.0315C87.505 52.0315 90.4805 56.4008 90.4805 65.1423C90.4805 69.495 89.6693 72.8314 88.044 75.1514C86.4215 77.4714 84.0895 78.6314 81.0535 78.6314ZM81.3038 56.3567C78.8645 56.3567 77.6435 59.4362 77.6435 65.5925C77.6435 71.3925 78.8398 74.2897 81.2323 74.2897C83.567 74.2897 84.733 71.3013 84.733 65.3218C84.733 59.3423 83.589 56.3567 81.3038 56.3567Z" fill="#FF8F6B"/>
<path d="M33 63.5238C33 75.7563 38.6705 86.6409 47.498 93.728C73.1968 91.919 93.5 70.4617 93.5 44.1905C93.5 39.4621 92.8015 34.9077 91.5723 30.5743C85.723 26.9728 78.8645 24.8571 71.5 24.8571C50.237 24.8571 33 42.1688 33 63.5238Z" fill="url(#paint0_radial_542_36)"/>
<path d="M44 88.381C68.3005 88.381 88 68.5962 88 44.1905C88 19.7847 68.3005 0 44 0C19.6995 0 0 19.7847 0 44.1905C0 68.5962 19.6995 88.381 44 88.381Z" fill="url(#paint1_linear_542_36)"/>
<path d="M44 80.0952C63.7442 80.0952 79.75 64.0201 79.75 44.1905C79.75 24.3608 63.7442 8.28571 44 8.28571C24.2558 8.28571 8.25 24.3608 8.25 44.1905C8.25 64.0201 24.2558 80.0952 44 80.0952Z" fill="#DBA508"/>
<path d="M34.1743 60.4747V53.8875C36.5558 55.3513 39.0913 56.0832 41.778 56.0832C43.802 56.0832 45.386 55.5999 46.5273 54.6332C47.6685 53.6638 48.2405 52.3519 48.2405 50.692C48.2405 47.2258 45.804 45.4941 40.9282 45.4941C39.3387 45.4941 37.422 45.6405 35.1698 45.9332V26.39H54.4583V32.6844H41.7285V39.6858C42.7488 39.5891 43.7113 39.5394 44.6188 39.5394C48.1965 39.5394 50.9988 40.484 53.0228 42.3676C55.0468 44.2568 56.0588 46.7949 56.0588 49.9822C56.0588 53.5091 54.8515 56.3926 52.4398 58.6297C50.028 60.8696 46.7555 61.9854 42.625 61.9854C39.2755 61.9882 36.4595 61.4855 34.1743 60.4747Z" fill="#FEE119"/>
<defs>
<radialGradient id="paint0_radial_542_36" cx="0" cy="0" r="1" gradientUnits="userSpaceOnUse" gradientTransform="translate(19.465 31.7539) scale(90.005 83.739)">
<stop/>
<stop offset="1" stop-opacity="0"/>
</radialGradient>
<linearGradient id="paint1_linear_542_36" x1="17.2494" y1="18.1902" x2="97.8716" y2="94.6424" gradientUnits="userSpaceOnUse">
<stop stop-color="#FEDE00"/>
<stop offset="1" stop-color="#FFD000"/>
</linearGradient>
</defs>
</svg>
