<svg width="202" height="132" viewBox="0 0 202 132" fill="none" xmlns="http://www.w3.org/2000/svg">
<path d="M156.44 95.568L123.176 66L149.048 36.3H174.92V34.0312L178.22 31.7625V24.9562L188.12 18.15V13.6125L194.72 9.075V4.5375L201.32 0H144.824L97.304 47.52L78.824 66L97.304 84.48L144.824 132H195.512V115.632L174.92 95.568H156.44Z" fill="#2D2E3A"/>
<path d="M158.816 123.816L101 66L148.85 18.15H188.12V13.6125L194.72 9.075V4.5375L201.32 0H144.824L101 43.824L89.912 54.912L78.824 66L97.304 84.48L144.824 132H195.512V123.816H158.816Z" fill="#161922"/>
<path d="M45.56 95.568L78.824 66L52.952 36.3H27.08L0.679993 0H57.176L104.696 47.52L123.176 66L104.696 84.48L57.176 132H6.48799V115.632L27.08 95.568H45.56Z" fill="#08A1DB"/>
<path d="M45.56 95.568L78.824 66L52.952 36.3H27.08L13.88 18.15H53.15L82.52 47.52L101 66L82.52 84.48L43.184 123.816H6.48799V115.632L27.08 95.568H45.56Z" fill="#0093C8"/>
<path d="M201.32 0H144.824L146.913 8.976L149.048 18.15V31.7625V36.3H174.92V34.0312L178.22 31.7625V24.9562L188.12 18.15V13.6125L194.72 9.075V4.5375L201.32 0Z" fill="#C80000"/>
<path d="M146.936 9.075L149.048 18.15V31.7625H178.22V24.9562L188.12 18.15V13.6125L194.72 9.075H146.936Z" fill="#B4281F"/>
<path d="M188.12 18.15H149.048V31.7625H178.22V24.9563L188.12 18.15Z" fill="#932517"/>
</svg>
