<svg width="115" height="116" viewBox="0 0 115 116" fill="none" xmlns="http://www.w3.org/2000/svg">
<path d="M58.132 114.474C42.0323 114.474 26.6485 107.599 15.9123 95.6146C5.02921 83.4681 0.0542659 67.7746 1.90228 51.4247C4.76914 26.0787 25.2258 5.29635 50.5472 2.02087C53.0714 1.69424 55.6231 1.52635 58.1351 1.52635C82.5478 1.52635 104.13 17.0398 111.844 40.1299C112.89 43.2497 114.968 51.0858 111.749 56.3547C110.081 59.0837 107.126 60.7901 102.971 61.4342C101.398 61.6754 98.5129 62.0417 95.1565 62.4416C89.4442 63.1254 84.2336 66.1811 80.8589 70.8272C77.4872 75.4672 76.2052 81.3435 77.3311 86.9573L77.989 90.245C79.1853 96.2098 77.6585 102.33 73.8003 107.038C69.936 111.748 64.2268 114.458 58.132 114.474ZM54.439 80.8948C48.534 80.8948 43.7304 85.6874 43.7304 91.579C43.7304 97.4706 48.534 102.263 54.439 102.263C60.3441 102.263 65.1477 97.4706 65.1477 91.579C65.1477 85.6874 60.3441 80.8948 54.439 80.8948Z" fill="#FED800"/>
<path d="M58.1349 3.05263C81.8868 3.05263 102.888 18.1479 110.393 40.6122C111.155 42.8925 113.407 50.7042 110.439 55.564C108.998 57.9237 106.477 59.3493 102.732 59.9293C101.337 60.146 98.7269 60.4818 94.9728 60.9305C88.8382 61.6632 83.2422 64.9447 79.6165 69.9327C75.997 74.9146 74.6171 81.2305 75.8257 87.2625L76.4835 90.5502C77.588 96.0633 76.1775 101.723 72.6069 106.079C69.0394 110.432 63.7585 112.938 58.1288 112.95C42.4666 112.95 27.4928 106.262 17.0473 94.6011C6.46097 82.7813 1.61759 67.5089 3.41665 51.6017C6.21008 26.9364 26.1099 6.72189 50.7429 3.5319C53.1998 3.21442 55.6872 3.05263 58.1349 3.05263ZM54.4389 103.789C61.1884 103.789 66.6774 98.3131 66.6774 91.5789C66.6774 84.8448 61.1884 79.3684 54.4389 79.3684C47.6894 79.3684 42.2004 84.8448 42.2004 91.5789C42.2004 98.3131 47.6894 103.789 54.4389 103.789ZM58.1349 0C55.574 0 52.9764 0.164842 50.3482 0.506737C24.2404 3.886 3.33404 25.1537 0.381505 51.2567C-3.57765 86.3071 23.8029 116 58.1349 116C71.8879 115.966 82.1866 103.405 79.488 89.9488L78.8302 86.6612C76.6395 75.7388 84.2549 65.2836 95.3399 63.9587C98.7147 63.5558 101.624 63.1895 103.203 62.9453C118.544 60.5734 115.227 45.414 113.3 39.6476C105.599 16.6094 83.8082 0 58.1349 0ZM54.4389 100.737C49.3691 100.737 45.26 96.6372 45.26 91.5789C45.26 86.5207 49.3691 82.4211 54.4389 82.4211C59.5087 82.4211 63.6178 86.5207 63.6178 91.5789C63.6178 96.6372 59.5087 100.737 54.4389 100.737Z" fill="#404040"/>
<path d="M25.3726 62.579C20.3033 62.579 16.1937 66.6791 16.1937 71.7369C16.1937 76.7946 20.3033 80.8948 25.3726 80.8948C30.4419 80.8948 34.5515 76.7946 34.5515 71.7369C34.5515 66.6791 30.4419 62.579 25.3726 62.579Z" fill="#DBA508"/>
<path d="M25.3726 64.1053C29.5918 64.1053 33.0217 67.5273 33.0217 71.7369C33.0217 75.9465 29.5918 79.3685 25.3726 79.3685C21.1534 79.3685 17.7235 75.9434 17.7235 71.7369C17.7235 67.5304 21.1534 64.1053 25.3726 64.1053ZM25.3726 61.0527C19.4583 61.0527 14.6639 65.8362 14.6639 71.7369C14.6639 77.6376 19.4583 82.4211 25.3726 82.4211C31.2868 82.4211 36.0813 77.6376 36.0813 71.7369C36.0813 65.8362 31.2868 61.0527 25.3726 61.0527Z" fill="#DB4747"/>
<path d="M25.3726 32.0527C20.3033 32.0527 16.1937 36.1528 16.1937 41.2106C16.1937 46.2683 20.3033 50.3685 25.3726 50.3685C30.4419 50.3685 34.5515 46.2683 34.5515 41.2106C34.5515 36.1528 30.4419 32.0527 25.3726 32.0527Z" fill="#FED800"/>
<path d="M25.3726 33.579C29.5918 33.579 33.0217 37.001 33.0217 41.2106C33.0217 45.4201 29.5918 48.8421 25.3726 48.8421C21.1534 48.8421 17.7235 45.4201 17.7235 41.2106C17.7235 37.001 21.1534 33.579 25.3726 33.579ZM25.3726 30.5263C19.4583 30.5263 14.6639 35.3098 14.6639 41.2106C14.6639 47.1113 19.4583 51.8948 25.3726 51.8948C31.2868 51.8948 36.0813 47.1113 36.0813 41.2106C36.0813 35.3098 31.2868 30.5263 25.3726 30.5263Z" fill="#DBA508"/>
<path d="M49.8495 13.7369C44.7802 13.7369 40.6707 17.837 40.6707 22.8948C40.6707 27.9525 44.7802 32.0527 49.8495 32.0527C54.9189 32.0527 59.0284 27.9525 59.0284 22.8948C59.0284 17.837 54.9189 13.7369 49.8495 13.7369Z" fill="#00FF49"/>
<path d="M49.8496 15.2632C54.0688 15.2632 57.4986 18.6852 57.4986 22.8948C57.4986 27.1043 54.0688 30.5263 49.8496 30.5263C45.6303 30.5263 42.2005 27.1043 42.2005 22.8948C42.2005 18.6852 45.6303 15.2632 49.8496 15.2632ZM49.8496 12.2105C43.9353 12.2105 39.1409 16.994 39.1409 22.8948C39.1409 28.7955 43.9353 33.579 49.8496 33.579C55.7638 33.579 60.5582 28.7955 60.5582 22.8948C60.5582 16.994 55.7638 12.2105 49.8496 12.2105Z" fill="#22CB52"/>
<path d="M80.4458 19.8422C75.3765 19.8422 71.2669 23.9423 71.2669 29.0001C71.2669 34.0578 75.3765 38.158 80.4458 38.158C85.5151 38.158 89.6246 34.0578 89.6246 29.0001C89.6246 23.9423 85.5151 19.8422 80.4458 19.8422Z" fill="#0093C8"/>
<path d="M80.4458 21.3685C84.6651 21.3685 88.0949 24.7905 88.0949 29C88.0949 33.2096 84.6651 36.6316 80.4458 36.6316C76.2266 36.6316 72.7968 33.2096 72.7968 29C72.7968 24.7905 76.2266 21.3685 80.4458 21.3685ZM80.4458 18.3158C74.5316 18.3158 69.7372 23.0993 69.7372 29C69.7372 34.9008 74.5316 39.6843 80.4458 39.6843C86.3601 39.6843 91.1545 34.9008 91.1545 29C91.1545 23.0993 86.3601 18.3158 80.4458 18.3158Z" fill="#0379A3"/>
</svg>
