<svg width="513" height="513" viewBox="0 0 513 513" fill="none" xmlns="http://www.w3.org/2000/svg">
<path d="M368.153 480.647H144.848C101.514 480.647 66.3887 445.522 66.3887 402.188V209.059C66.3887 165.725 101.514 130.6 144.848 130.6H368.153C411.487 130.6 446.612 165.725 446.612 209.059V402.188C446.612 445.522 411.487 480.647 368.153 480.647Z" fill="#C9D4E0"/>
<path d="M147.865 356.924H365.135V393.135C365.135 413.136 348.925 429.347 328.924 429.347H184.077C164.076 429.347 147.865 413.136 147.865 393.135V356.924Z" fill="white"/>
<path d="M340.994 130.6H172.006V121.547C172.006 108.215 182.815 97.406 196.147 97.406H316.853C330.185 97.406 340.994 108.215 340.994 121.547V130.6Z" fill="#0093C8"/>
<path d="M446.612 227.165V329.765L492.788 320.845C501.068 319.004 506.965 311.659 506.965 303.167V253.756C506.965 245.271 501.068 237.92 492.788 236.079L446.612 227.165Z" fill="#0093C8"/>
<path d="M66.3881 227.165V329.765L20.2121 320.845C11.9316 319.004 6.03516 311.659 6.03516 303.167V253.756C6.03516 245.271 11.9316 237.92 20.2121 236.079L66.3881 227.165Z" fill="#0093C8"/>
<path d="M310.817 97.4058H202.182L212.309 40.7223C213.438 35.0793 218.393 31.0176 224.145 31.0176H288.849C294.601 31.0176 299.556 35.0793 300.684 40.7223L310.817 97.4058Z" fill="#DB4747"/>
<path d="M482.823 115.512C497.823 115.512 509.982 103.353 509.982 88.3532C509.982 73.3538 497.823 61.1943 482.823 61.1943C467.824 61.1943 455.665 73.3538 455.665 88.3532C455.665 103.353 467.824 115.512 482.823 115.512Z" fill="#FF8F6B"/>
<path d="M30.1764 115.512C45.1758 115.512 57.3352 103.353 57.3352 88.3532C57.3352 73.3538 45.1758 61.1943 30.1764 61.1943C15.177 61.1943 3.01758 73.3538 3.01758 88.3532C3.01758 103.353 15.177 115.512 30.1764 115.512Z" fill="#FF8F6B"/>
<path d="M168.988 302.606C197.321 302.606 220.288 279.638 220.288 251.306C220.288 222.974 197.321 200.006 168.988 200.006C140.656 200.006 117.688 222.974 117.688 251.306C117.688 279.638 140.656 302.606 168.988 302.606Z" fill="#A2B4CC"/>
<path d="M168.988 272.429C180.654 272.429 190.112 262.972 190.112 251.306C190.112 239.64 180.654 230.182 168.988 230.182C157.322 230.182 147.865 239.64 147.865 251.306C147.865 262.972 157.322 272.429 168.988 272.429Z" fill="#F5E25C"/>
<path d="M344.012 302.606C372.344 302.606 395.312 279.638 395.312 251.306C395.312 222.974 372.344 200.006 344.012 200.006C315.68 200.006 292.712 222.974 292.712 251.306C292.712 279.638 315.68 302.606 344.012 302.606Z" fill="#A2B4CC"/>
<path d="M344.012 272.429C355.678 272.429 365.135 262.972 365.135 251.306C365.135 239.64 355.678 230.182 344.012 230.182C332.346 230.182 322.888 239.64 322.888 251.306C322.888 262.972 332.346 272.429 344.012 272.429Z" fill="#F5E25C"/>
<path d="M368.153 486.682H144.847C98.2542 486.682 60.3525 448.781 60.3525 402.188V209.059C60.3525 162.466 98.2542 124.565 144.847 124.565H368.153C414.745 124.565 452.647 162.466 452.647 209.059V402.188C452.647 448.781 414.745 486.682 368.153 486.682ZM144.847 136.635C104.911 136.635 72.4231 169.123 72.4231 209.059V402.188C72.4231 442.124 104.911 474.612 144.847 474.612H368.153C408.088 474.612 440.576 442.124 440.576 402.188V209.059C440.576 169.123 408.088 136.635 368.153 136.635H144.847Z" fill="#404040"/>
<path d="M168.989 305.623C139.035 305.623 114.671 281.253 114.671 251.306C114.671 221.359 139.035 196.988 168.989 196.988C198.942 196.988 223.306 221.359 223.306 251.306C223.306 281.253 198.942 305.623 168.989 305.623ZM168.989 203.023C142.367 203.023 120.706 224.684 120.706 251.306C120.706 277.927 142.367 299.588 168.989 299.588C195.61 299.588 217.271 277.927 217.271 251.306C217.271 224.684 195.61 203.023 168.989 203.023Z" fill="#404040"/>
<path d="M168.988 275.447C155.674 275.447 144.847 264.62 144.847 251.306C144.847 237.992 155.674 227.165 168.988 227.165C182.302 227.165 193.13 237.992 193.13 251.306C193.13 264.62 182.302 275.447 168.988 275.447ZM168.988 233.2C159.006 233.2 150.882 241.324 150.882 251.306C150.882 261.288 159.006 269.412 168.988 269.412C178.971 269.412 187.094 261.288 187.094 251.306C187.094 241.324 178.971 233.2 168.988 233.2Z" fill="#404040"/>
<path d="M344.012 305.623C314.059 305.623 289.694 281.253 289.694 251.306C289.694 221.359 314.059 196.988 344.012 196.988C373.965 196.988 398.33 221.359 398.33 251.306C398.33 281.253 373.965 305.623 344.012 305.623ZM344.012 203.023C317.39 203.023 295.73 224.684 295.73 251.306C295.73 277.927 317.39 299.588 344.012 299.588C370.634 299.588 392.294 277.927 392.294 251.306C392.294 224.684 370.634 203.023 344.012 203.023Z" fill="#404040"/>
<path d="M344.012 275.447C330.698 275.447 319.871 264.62 319.871 251.306C319.871 237.992 330.698 227.165 344.012 227.165C357.326 227.165 368.153 237.992 368.153 251.306C368.153 264.62 357.326 275.447 344.012 275.447ZM344.012 233.2C334.029 233.2 325.906 241.324 325.906 251.306C325.906 261.288 334.029 269.412 344.012 269.412C353.994 269.412 362.118 261.288 362.118 251.306C362.118 241.324 353.994 233.2 344.012 233.2Z" fill="#404040"/>
<path d="M340.994 133.618H172.006C170.34 133.618 168.988 132.266 168.988 130.6V121.547C168.988 106.573 181.174 94.3882 196.147 94.3882H316.853C331.827 94.3882 344.012 106.573 344.012 121.547V130.6C344.012 132.266 342.66 133.618 340.994 133.618ZM175.024 127.582H337.977V121.547C337.977 109.899 328.501 100.423 316.853 100.423H196.147C184.499 100.423 175.024 109.899 175.024 121.547V127.582Z" fill="#404040"/>
<path d="M310.818 100.424H202.182C201.289 100.424 200.444 100.031 199.865 99.3432C199.291 98.6612 199.05 97.7559 199.213 96.8748L209.346 40.1913C210.758 33.0998 216.975 28 224.151 28H288.849C296.019 28 302.241 33.0998 303.642 40.1309L313.787 96.8748C313.944 97.7559 313.702 98.6552 313.135 99.3432C312.556 100.031 311.711 100.424 310.818 100.424ZM205.791 94.3882H307.215L297.721 41.2535C296.882 37.0952 293.152 34.0353 288.849 34.0353H224.151C219.848 34.0353 216.118 37.0952 215.273 41.3139L205.791 94.3882Z" fill="#404040"/>
<path d="M328.924 432.365H184.077C162.446 432.365 144.847 414.766 144.847 393.135V356.924C144.847 355.258 146.199 353.906 147.865 353.906H365.135C366.801 353.906 368.153 355.258 368.153 356.924V393.135C368.153 414.766 350.554 432.365 328.924 432.365ZM150.882 359.941V393.135C150.882 411.44 165.778 426.33 184.077 426.33H328.924C347.223 426.33 362.118 411.44 362.118 393.135V359.941H150.882Z" fill="#404040"/>
<path d="M446.612 335.8C445.224 335.8 443.86 335.317 442.767 334.418C441.379 333.271 440.577 331.563 440.577 329.765V227.165C440.577 225.366 441.379 223.658 442.767 222.511C444.156 221.365 446.014 220.9 447.753 221.244L493.923 230.164C505.221 232.675 512.994 242.362 512.994 253.768V303.179C512.994 314.58 505.221 324.273 494.086 326.747L447.747 335.703C447.378 335.764 446.992 335.8 446.612 335.8ZM452.647 234.473V322.45L491.641 314.918C497.037 313.717 500.93 308.87 500.93 303.167V253.756C500.93 248.053 497.037 243.206 491.478 241.969L452.647 234.473Z" fill="#404040"/>
<path d="M488.859 115.512H476.788V233.2H488.859V115.512Z" fill="#404040"/>
<path d="M482.823 118.529C466.184 118.529 452.647 104.992 452.647 88.3527C452.647 71.7134 466.184 58.1763 482.823 58.1763C499.463 58.1763 513 71.7134 513 88.3527C513 104.992 499.463 118.529 482.823 118.529ZM482.823 64.2116C469.51 64.2116 458.682 75.0389 458.682 88.3527C458.682 101.667 469.51 112.494 482.823 112.494C496.137 112.494 506.965 101.667 506.965 88.3527C506.965 75.0389 496.137 64.2116 482.823 64.2116Z" fill="#404040"/>
<path d="M66.3882 335.8C66.008 335.8 65.6218 335.764 65.2476 335.691L19.0776 326.771C7.77346 324.26 0 314.568 0 303.167V253.756C0 242.355 7.77346 232.663 18.9086 230.188L65.2476 221.232C66.9978 220.888 68.8446 221.359 70.2327 222.499C71.6208 223.658 72.4235 225.366 72.4235 227.165V329.765C72.4235 331.563 71.6208 333.271 70.2327 334.418C69.1403 335.317 67.7764 335.8 66.3882 335.8ZM60.3529 234.479L21.3589 242.011C15.9634 243.212 12.0706 248.059 12.0706 253.762V303.173C12.0706 308.876 15.9634 313.723 21.5219 314.96L60.3529 322.456V234.479Z" fill="#404040"/>
<path d="M36.2117 115.512H24.1411V233.2H36.2117V115.512Z" fill="#404040"/>
<path d="M30.1765 118.529C13.5372 118.529 0 104.992 0 88.3527C0 71.7134 13.5372 58.1763 30.1765 58.1763C46.8158 58.1763 60.3529 71.7134 60.3529 88.3527C60.3529 104.992 46.8158 118.529 30.1765 118.529ZM30.1765 64.2116C16.8626 64.2116 6.03529 75.0389 6.03529 88.3527C6.03529 101.667 16.8626 112.494 30.1765 112.494C43.4903 112.494 54.3177 101.667 54.3177 88.3527C54.3177 75.0389 43.4903 64.2116 30.1765 64.2116Z" fill="#404040"/>
<path d="M256.5 408.224C254.834 408.224 253.482 406.872 253.482 405.206V356.924C253.482 355.258 254.834 353.906 256.5 353.906C258.166 353.906 259.518 355.258 259.518 356.924V405.206C259.518 406.872 258.166 408.224 256.5 408.224Z" fill="#404040"/>
<path d="M292.712 378.047C291.046 378.047 289.694 376.695 289.694 375.03V356.924C289.694 355.258 291.046 353.906 292.712 353.906C294.378 353.906 295.73 355.258 295.73 356.924V375.03C295.73 376.695 294.378 378.047 292.712 378.047Z" fill="#404040"/>
<path d="M220.289 432.365C218.623 432.365 217.271 431.013 217.271 429.347V356.924C217.271 355.258 218.623 353.906 220.289 353.906C221.954 353.906 223.306 355.258 223.306 356.924V429.347C223.306 431.013 221.954 432.365 220.289 432.365Z" fill="#404040"/>
<path d="M184.076 384.082C182.41 384.082 181.059 382.731 181.059 381.065V356.924C181.059 355.258 182.41 353.906 184.076 353.906C185.742 353.906 187.094 355.258 187.094 356.924V381.065C187.094 382.731 185.742 384.082 184.076 384.082Z" fill="#404040"/>
<path d="M328.923 432.365C327.258 432.365 325.906 431.013 325.906 429.347V356.924C325.906 355.258 327.258 353.906 328.923 353.906C330.589 353.906 331.941 355.258 331.941 356.924V429.347C331.941 431.013 330.589 432.365 328.923 432.365Z" fill="#404040"/>
<path d="M184.076 432.365C182.41 432.365 181.059 431.013 181.059 429.347V393.135C181.059 391.47 182.41 390.118 184.076 390.118C185.742 390.118 187.094 391.47 187.094 393.135V429.347C187.094 431.013 185.742 432.365 184.076 432.365Z" fill="#404040"/>
<path d="M256.5 432.365C254.834 432.365 253.482 431.013 253.482 429.347V417.276C253.482 415.611 254.834 414.259 256.5 414.259C258.166 414.259 259.518 415.611 259.518 417.276V429.347C259.518 431.013 258.166 432.365 256.5 432.365Z" fill="#404040"/>
<path d="M292.712 432.365C291.046 432.365 289.694 431.013 289.694 429.347V387.1C289.694 385.434 291.046 384.082 292.712 384.082C294.378 384.082 295.73 385.434 295.73 387.1V429.347C295.73 431.013 294.378 432.365 292.712 432.365Z" fill="#404040"/>
</svg>
