<svg width="89" height="105" viewBox="0 0 89 105" fill="none" xmlns="http://www.w3.org/2000/svg">
<path d="M49.9054 9.42908H39.0945V18.755H49.9054V9.42908Z" fill="#0093C8"/>
<path d="M49.9076 20.3189H39.0925C38.231 20.3189 37.5326 19.6188 37.5326 18.7551V12.1982C37.5326 11.3345 38.231 10.6343 39.0925 10.6343H49.9076C50.7691 10.6343 51.4675 11.3345 51.4675 12.1982V18.7551C51.4675 19.6188 50.7691 20.3189 49.9076 20.3189ZM40.6524 17.1912H48.3477V13.7621H40.6524V17.1912Z" fill="#090D18"/>
<path d="M51.2865 1.56589H37.7135C34.785 1.56589 32.411 3.94602 32.411 6.88205C32.411 9.81808 34.785 12.1982 37.7135 12.1982H51.2865C54.215 12.1982 56.589 9.81808 56.589 6.88205C56.589 3.94602 54.215 1.56589 51.2865 1.56589Z" fill="#08A1DB"/>
<path d="M51.2865 13.7622H37.7135C33.923 13.7622 30.8501 10.6814 30.8501 6.88108C30.8501 3.08076 33.923 0 37.7135 0H51.2865C55.0771 0 58.1499 3.08076 58.1499 6.88108C58.1499 10.6814 55.0771 13.7622 51.2865 13.7622ZM37.7135 3.12985C35.6459 3.12985 33.9698 4.81026 33.9698 6.88316C33.9698 8.95607 35.6459 10.6365 37.7135 10.6365H51.2865C53.3541 10.6365 55.0302 8.95607 55.0302 6.88316C55.0302 4.81026 53.3541 3.12985 51.2865 3.12985H37.7135Z" fill="#090D18"/>
<path d="M71.0965 29.5116L75.4217 33.8479L81.5095 27.7445L77.1843 23.4082L71.0965 29.5116Z" fill="#0093C8"/>
<path d="M75.422 35.4136C75.008 35.4135 74.6111 35.2485 74.3186 34.9549L69.9936 30.6177C69.3847 30.007 69.3847 29.0171 69.9936 28.4064L76.0813 22.3041C76.6904 21.6936 77.6778 21.6936 78.2869 22.3041L82.6119 26.6402C83.2209 27.2509 83.2209 28.2409 82.6119 28.8516L76.5295 34.9549C76.2359 35.2495 75.8373 35.4146 75.422 35.4136ZM73.3057 29.5126L75.4251 31.6384L79.3071 27.7454L77.1846 25.6206L73.3057 29.5126Z" fill="#090D18"/>
<path d="M11.8164 23.4088L7.49117 27.7451L13.579 33.8486L17.9042 29.5123L11.8164 23.4088Z" fill="#0093C8"/>
<path d="M13.5782 35.4136C13.1646 35.4132 12.7681 35.2482 12.4759 34.9549L6.38823 28.8516C5.77929 28.2409 5.77929 27.2509 6.38823 26.6402L10.7132 22.3041C11.3224 21.6936 12.3098 21.6936 12.9189 22.3041L19.0065 28.4064C19.6155 29.0171 19.6155 30.007 19.0065 30.6177L14.6815 34.9549C14.389 35.2485 13.9921 35.4135 13.5782 35.4136ZM9.6962 27.7454L13.5782 31.6384L15.6944 29.5126L11.8155 25.6206L9.6962 27.7454Z" fill="#090D18"/>
<path d="M7.55746 18.931L3.02562 23.4744C1.35813 25.1462 1.35813 27.8567 3.02562 29.5285C4.69312 31.2003 7.39666 31.2003 9.06415 29.5285L13.596 24.985C15.2635 23.3132 15.2635 20.6027 13.596 18.931C11.9285 17.2592 9.22496 17.2592 7.55746 18.931Z" fill="#08A1DB"/>
<path d="M6.04299 32.3463C3.68525 32.3465 1.55964 30.9225 0.657492 28.7386C-0.244655 26.5547 0.254358 24.041 1.92181 22.3698L6.45375 17.8262C8.7301 15.544 12.4208 15.544 14.6972 17.8262C16.9735 20.1084 16.9735 23.8086 14.6972 26.0908L10.1652 30.6344C9.07415 31.7338 7.5899 32.3502 6.04299 32.3463ZM10.5749 19.2431C9.85651 19.2422 9.16728 19.5281 8.65941 20.0375L4.12747 24.5811C3.06945 25.6421 3.06945 27.3621 4.12747 28.4231C5.19968 29.4495 6.88733 29.4495 7.95955 28.4231L12.4915 23.8795C13.2718 23.1045 13.5069 21.9332 13.0863 20.9159C12.6658 19.8987 11.6733 19.2375 10.5749 19.2431Z" fill="#090D18"/>
<path d="M75.4069 24.9847L79.9388 29.5282C81.6063 31.1999 84.3098 31.1999 85.9773 29.5281C87.6448 27.8564 87.6448 25.1459 85.9773 23.4741L81.4455 18.9306C79.778 17.2588 77.0744 17.2588 75.4069 18.9306C73.7394 20.6024 73.7394 23.3129 75.4069 24.9847Z" fill="#08A1DB"/>
<path d="M82.9571 32.3463C81.4102 32.3502 79.926 31.7338 78.8349 30.6344L74.3029 26.0908C72.0266 23.8086 72.0266 20.1084 74.3029 17.8262C76.5793 15.544 80.27 15.544 82.5463 17.8262L87.0783 22.3698C88.7447 24.0414 89.243 26.5545 88.3411 28.738C87.4391 30.9214 85.3144 32.3455 82.9571 32.3463ZM76.5096 23.8795L81.0416 28.4231C82.1138 29.4495 83.8015 29.4495 84.8737 28.4231C85.9317 27.3621 85.9317 25.6421 84.8737 24.5811L80.3407 20.0375C79.6598 19.3334 78.6533 19.0519 77.7071 19.3008C76.761 19.5497 76.0221 20.2906 75.7738 21.2391C75.5255 22.1877 75.8074 23.1968 76.5096 23.8795Z" fill="#090D18"/>
<path d="M44.5 103.436C68.2152 103.436 87.4401 84.1618 87.4401 60.3856C87.4401 36.6094 68.2152 17.3351 44.5 17.3351C20.7848 17.3351 1.55989 36.6094 1.55989 60.3856C1.55989 84.1618 20.7848 103.436 44.5 103.436Z" fill="#08A1DB"/>
<path d="M44.5 93.9131C62.9693 93.9131 77.9416 78.9024 77.9416 60.3856C77.9416 41.8689 62.9693 26.8581 44.5 26.8581C26.0308 26.8581 11.0585 41.8689 11.0585 60.3856C11.0585 78.9024 26.0308 93.9131 44.5 93.9131Z" fill="#D8E2EB"/>
<path d="M27.7107 43.5532C27.4181 43.8467 27.0212 44.0116 26.6073 44.0116C26.1935 44.0116 25.7966 43.8467 25.504 43.5532L19.7502 37.7835C19.159 37.1698 19.1675 36.1944 19.7692 35.5912C20.3709 34.9879 21.3438 34.9795 21.9558 35.5721L27.7107 41.3408C28.0034 41.6341 28.1679 42.032 28.1679 42.447C28.1679 42.8619 28.0034 43.2598 27.7107 43.5532Z" fill="#090D18"/>
<path d="M27.7097 79.4307L21.9558 85.1994C21.3438 85.792 20.3709 85.7835 19.7692 85.1803C19.1675 84.5771 19.159 83.6017 19.7502 82.988L25.504 77.2194C26.1161 76.6267 27.089 76.6352 27.6907 77.2384C28.2924 77.8417 28.3008 78.8171 27.7097 79.4307Z" fill="#090D18"/>
<path d="M61.2894 43.5532C61.582 43.8467 61.9789 44.0116 62.3928 44.0116C62.8066 44.0116 63.2036 43.8467 63.4961 43.5532L69.25 37.7835C69.8411 37.1698 69.8327 36.1944 69.231 35.5912C68.6293 34.9879 67.6564 34.9795 67.0443 35.5721L61.2894 41.3408C60.9967 41.6341 60.8322 42.032 60.8322 42.447C60.8322 42.8619 60.9967 43.2598 61.2894 43.5532Z" fill="#090D18"/>
<path d="M61.2904 79.4307L67.0442 85.1994C67.6563 85.792 68.6292 85.7835 69.2309 85.1803C69.8326 84.5771 69.841 83.6017 69.2499 82.988L63.496 77.2194C62.884 76.6267 61.9111 76.6352 61.3094 77.2384C60.7077 77.8417 60.6992 78.8171 61.2904 79.4307Z" fill="#090D18"/>
<path d="M44.5 42.5575C45.9467 42.5575 47.1195 43.7333 47.1195 45.1838V57.453H41.8804V45.1848C41.8801 44.4881 42.156 43.8198 42.6473 43.3271C43.1386 42.8343 43.805 42.5575 44.5 42.5575Z" fill="#08A1DB"/>
<path d="M29.5929 75.3446C28.5699 74.3189 28.5699 72.6561 29.5929 71.6304L40.9869 60.2072L44.6915 63.9213L33.2982 75.3438C32.8071 75.8367 32.1407 76.1136 31.4457 76.1138C30.7508 76.1139 30.0843 75.8372 29.5929 75.3446Z" fill="#08A1DB"/>
<path d="M44.5 95.4771C25.1693 95.4771 9.49859 79.7661 9.49859 60.3856C9.49859 41.0052 25.1693 25.2942 44.5 25.2942C63.8308 25.2942 79.5014 41.0052 79.5014 60.3856C79.4774 79.7561 63.8208 95.4529 44.5 95.4771ZM44.5 28.422C26.8922 28.422 12.6183 42.7326 12.6183 60.3856C12.6183 78.0387 26.8922 92.3493 44.5 92.3493C62.1078 92.3493 76.3817 78.0387 76.3817 60.3856C76.3616 42.7409 62.0995 28.4421 44.5 28.422Z" fill="#090D18"/>
<path d="M44.5155 35.8942C45.9513 35.8942 47.1153 34.7272 47.1153 33.2877C47.1153 31.8482 45.9513 30.6812 44.5155 30.6812C43.0796 30.6812 41.9157 31.8482 41.9157 33.2877C41.9157 34.7272 43.0796 35.8942 44.5155 35.8942Z" fill="#090D18"/>
<path d="M44.5155 90.0599C45.9513 90.0599 47.1153 88.893 47.1153 87.4534C47.1153 86.0139 45.9513 84.847 44.5155 84.847C43.0796 84.847 41.9157 86.0139 41.9157 87.4534C41.9157 88.893 43.0796 90.0599 44.5155 90.0599Z" fill="#090D18"/>
<path d="M17.5018 62.9765C18.9377 62.9765 20.1016 61.8096 20.1016 60.37C20.1016 58.9305 18.9377 57.7636 17.5018 57.7636C16.066 57.7636 14.9021 58.9305 14.9021 60.37C14.9021 61.8096 16.066 62.9765 17.5018 62.9765Z" fill="#090D18"/>
<path d="M71.5284 62.9765C72.9642 62.9765 74.1281 61.8096 74.1281 60.37C74.1281 58.9305 72.9642 57.7636 71.5284 57.7636C70.0925 57.7636 68.9286 58.9305 68.9286 60.37C68.9286 61.8096 70.0925 62.9765 71.5284 62.9765Z" fill="#090D18"/>
<path d="M44.5 105C19.9233 105 0 85.0254 0 60.3856C0 35.7457 19.9233 15.7712 44.5 15.7712C69.0767 15.7712 89 35.7457 89 60.3856C88.9719 85.0138 69.065 104.972 44.5 105ZM44.5 18.8989C21.6463 18.8989 3.11974 37.4731 3.11974 60.3856C3.11974 83.298 21.6463 101.872 44.5 101.872C67.3537 101.872 85.8803 83.298 85.8803 60.3856C85.8539 37.4841 67.3428 18.9253 44.5 18.8989Z" fill="#090D18"/>
<path d="M47.1206 59.0179H41.8794C41.0179 59.0179 40.3195 58.3177 40.3195 57.454V45.1848C40.3195 42.8701 42.1912 40.9936 44.5 40.9936C46.8088 40.9936 48.6804 42.8701 48.6804 45.1848V57.454C48.6804 58.3177 47.9821 59.0179 47.1206 59.0179ZM43.4393 55.8901H45.5607V45.1848C45.5607 44.5975 45.0858 44.1214 44.5 44.1214C43.9142 44.1214 43.4393 44.5975 43.4393 45.1848V55.8901Z" fill="#090D18"/>
<path d="M31.4461 77.6779C29.7556 77.6781 28.2315 76.6572 27.5846 75.0913C26.9376 73.5255 27.2952 71.7231 28.4907 70.5247L39.884 59.1022C40.4931 58.4916 41.4805 58.4916 42.0896 59.1022L45.7948 62.8158C46.4038 63.4265 46.4038 64.4165 45.7948 65.0272L34.4015 76.4498C33.6198 77.2389 32.5554 77.6812 31.4461 77.6779ZM40.9873 62.4186L30.6922 72.7402C30.279 73.1554 30.279 73.8275 30.6922 74.2426C31.1118 74.6431 31.771 74.6431 32.1907 74.2426L42.4858 63.921L40.9873 62.4186Z" fill="#090D18"/>
<path d="M44.5 64.361C46.6899 64.361 48.4652 62.5811 48.4652 60.3856C48.4652 58.19 46.6899 56.4102 44.5 56.4102C42.3101 56.4102 40.5348 58.19 40.5348 60.3856C40.5348 62.5811 42.3101 64.361 44.5 64.361Z" fill="#0093C8"/>
<path d="M44.5 65.925C42.2652 65.9255 40.2502 64.5761 39.3947 62.5063C38.5392 60.4364 39.0117 58.0537 40.5917 56.4693C42.1718 54.8849 44.5483 54.4107 46.613 55.2681C48.6777 56.1254 50.024 58.1453 50.024 60.3858C50.0205 63.4432 47.5495 65.921 44.5 65.925ZM44.5 57.9753C43.5269 57.9749 42.6494 58.5623 42.2769 59.4635C41.9043 60.3647 42.11 61.4022 42.7981 62.092C43.4861 62.7818 44.521 62.9881 45.4199 62.6146C46.3188 62.241 46.9047 61.3613 46.9042 60.3858C46.9025 59.0552 45.8271 57.977 44.5 57.9753Z" fill="#090D18"/>
</svg>
