<svg width="513" height="513" viewBox="0 0 513 513" fill="none" xmlns="http://www.w3.org/2000/svg">
<g clip-path="url(#clip0_618_81)">
<path d="M93.8254 252.921V108.103C93.8254 103.616 90.154 99.9445 85.6667 99.9445H81.5873V71.389C81.5873 66.9017 77.9159 63.2302 73.4286 63.2302C68.9413 63.2302 65.2698 66.9017 65.2698 71.389V99.9445H61.1905C56.7032 99.9445 53.0317 103.616 53.0317 108.103V501.762H469.127V252.921H93.8254Z" fill="#C9D4E0"/>
<path d="M53.0317 273.317V345.93H469.127V252.921H93.8254C93.8254 264.343 84.8508 273.317 73.4286 273.317H53.0317Z" fill="#DB4747"/>
<path d="M501.762 489.524H481.365V252.921C481.365 245.986 476.062 240.683 469.127 240.683H106.471L106.063 108.103C106.063 99.9444 101.168 92.6016 93.8254 89.3381V71.3889C93.8254 64.8619 90.5619 58.7429 85.6667 55.0714V12.2381C85.6667 5.30317 80.3635 0 73.4286 0C66.4937 0 61.1905 5.30317 61.1905 12.2381V63.2302C61.1905 68.5333 64.454 73.0206 69.3492 74.6524V87.7064C62.4143 87.7064 57.1111 93.0095 57.1111 99.9444C57.1111 106.879 62.4143 112.183 69.3492 112.183H81.5873V146.857H53.0317C46.0968 146.857 40.7937 152.16 40.7937 159.095V489.524H12.2381C5.30317 489.524 0 494.827 0 501.762C0 508.697 5.30317 514 12.2381 514H501.762C508.697 514 514 508.697 514 501.762C514 494.827 508.697 489.524 501.762 489.524ZM81.9952 171.333L82.4032 261.079C82.4032 268.014 87.7064 273.317 94.6413 273.317C99.9445 273.317 104.432 270.054 106.063 265.159H456.889V334.508H407.937V326.349C407.937 319.414 402.633 314.111 395.698 314.111C388.764 314.111 383.46 319.414 383.46 326.349V334.508H358.984V326.349C358.984 319.414 353.681 314.111 346.746 314.111C339.811 314.111 334.508 319.414 334.508 326.349V334.508H310.032V326.349C310.032 319.414 304.729 314.111 297.794 314.111C290.859 314.111 285.556 319.414 285.556 326.349V334.508H261.079V326.349C261.079 319.414 255.776 314.111 248.841 314.111C241.906 314.111 236.603 319.414 236.603 326.349V334.508H212.127V326.349C212.127 319.414 206.824 314.111 199.889 314.111C192.954 314.111 187.651 319.414 187.651 326.349V334.508H163.175V326.349C163.175 319.414 157.871 314.111 150.937 314.111C144.002 314.111 138.698 319.414 138.698 326.349V334.508H114.222V326.349C114.222 319.414 108.919 314.111 101.984 314.111C95.0492 314.111 89.746 319.414 89.746 326.349V334.508H65.2698V171.333H81.9952ZM65.2698 358.984H456.889V489.524H432.413V460.968C432.413 447.506 421.398 436.492 407.937 436.492C394.475 436.492 383.46 447.506 383.46 460.968V489.524H358.984V460.968C358.984 447.506 347.97 436.492 334.508 436.492C321.046 436.492 310.032 447.506 310.032 460.968V489.524H285.556V460.968C285.556 447.506 274.541 436.492 261.079 436.492C247.617 436.492 236.603 447.506 236.603 460.968V489.524H212.127V460.968C212.127 447.506 201.113 436.492 187.651 436.492C174.189 436.492 163.175 447.506 163.175 460.968V489.524H138.698V460.968C138.698 447.506 127.684 436.492 114.222 436.492C100.76 436.492 89.746 447.506 89.746 460.968V489.524H65.2698V358.984Z" fill="#404040"/>
<path d="M248.841 420.175C255.776 420.175 261.079 414.872 261.079 407.937V395.699C261.079 388.764 255.776 383.46 248.841 383.46C241.906 383.46 236.603 388.764 236.603 395.699V407.937C236.603 414.872 241.906 420.175 248.841 420.175ZM297.794 420.175C304.729 420.175 310.032 414.872 310.032 407.937V395.699C310.032 388.764 304.729 383.46 297.794 383.46C290.859 383.46 285.556 388.764 285.556 395.699V407.937C285.556 414.872 290.859 420.175 297.794 420.175ZM395.698 420.175C402.633 420.175 407.937 414.872 407.937 407.937V395.699C407.937 388.764 402.633 383.46 395.698 383.46C388.764 383.46 383.46 388.764 383.46 395.699V407.937C383.46 414.872 388.764 420.175 395.698 420.175ZM150.937 420.175C157.872 420.175 163.175 414.872 163.175 407.937V395.699C163.175 388.764 157.872 383.46 150.937 383.46C144.002 383.46 138.698 388.764 138.698 395.699V407.937C138.698 414.872 144.002 420.175 150.937 420.175Z" fill="#404040"/>
</g>
<defs>
<clipPath id="clip0_618_81">
<rect width="513" height="513" fill="white"/>
</clipPath>
</defs>
</svg>
