<svg width="127" height="109" viewBox="0 0 127 109" fill="none" xmlns="http://www.w3.org/2000/svg">
<path d="M125.092 9.62833V89.9578C125.092 94.1383 121.681 97.5272 117.472 97.5272H9.52754C5.31913 97.5272 1.90754 94.1383 1.90754 89.9578V9.62833C1.90754 5.44785 5.31913 2.05889 9.52754 2.05889H117.472C121.681 2.05889 125.092 5.44785 125.092 9.62833ZM114.932 72.4926V17.2129H17.4168V82.3732H114.932V72.4926Z" fill="#0093C8"/>
<path d="M53.406 57.7322L53.4949 57.6438C57.7522 53.3662 57.7224 46.4731 53.4284 42.2319C49.1343 37.9907 42.1952 38.0005 37.9133 42.2539C33.6315 46.5073 33.6216 53.4004 37.8911 57.666C42.1607 61.9316 49.0998 61.9612 53.406 57.7322ZM114.932 72.4926V82.3732H17.4168V17.2129H114.932V27.091H99.629V41.806H114.932V57.7776H99.629V72.4926H114.932Z" fill="#FEDE00"/>
<path d="M114.932 57.7776H99.629V72.4926H114.932V57.7776Z" fill="#0379A3"/>
<path d="M114.932 27.091H99.629V41.806H114.932V27.091Z" fill="#0379A3"/>
<path d="M111.443 97.5272H86.6775V106.941H111.443V97.5272Z" fill="#0379A3"/>
<path d="M53.406 57.7322C49.0507 62.0099 42.032 61.9804 37.7133 57.666C33.3947 53.3517 33.4046 46.3795 37.7355 42.0773C42.0665 37.7751 49.0852 37.7652 53.4284 42.0552C57.7715 46.3452 57.8013 53.3174 53.4949 57.6438L53.406 57.7322Z" fill="#0379A3"/>
<path d="M40.3225 97.5272H15.5575V106.941H40.3225V97.5272Z" fill="#0379A3"/>
<path d="M117.472 0H9.52754C4.20548 0 0 4.34158 0 9.62833V89.9578C0 95.2446 4.20548 99.6643 9.52754 99.6643H13.462V106.941C13.4886 108.076 14.4149 108.986 15.5575 109H40.3225C41.4651 108.986 42.3914 108.076 42.418 106.941V99.6643H84.582V106.941C84.6086 108.076 85.5349 108.986 86.6775 109H111.443C112.585 108.986 113.511 108.076 113.538 106.941V99.6643H117.472C122.795 99.6643 127 95.2446 127 89.9578V9.62833C127 4.34158 122.795 0 117.472 0ZM38.354 104.963H17.526V99.6643H38.354V104.963ZM109.474 104.963H88.646V99.6643H109.474V104.963ZM122.936 89.9578C122.936 93.0186 120.554 95.6273 117.472 95.6273H9.52754C6.44627 95.6273 4.064 93.0186 4.064 89.9578V9.62833C4.064 6.5675 6.44627 4.03704 9.52754 4.03704H117.472C120.554 4.03704 122.936 6.5675 122.936 9.62833V89.9578Z" fill="#404040"/>
<path d="M114.932 15.1389H17.4168C16.2946 15.1389 15.494 16.0977 15.494 17.2129V82.3732C15.4738 82.8848 15.6702 83.3813 16.0356 83.7424C16.401 84.1034 16.9019 84.2959 17.4168 84.2731H114.932C115.446 84.2957 115.945 84.1026 116.308 83.7411C116.671 83.3797 116.864 82.8832 116.84 82.3732V17.2129C116.84 16.0977 116.055 15.1389 114.932 15.1389ZM19.558 80.2361V19.1759H112.776V24.9792H99.629C98.4769 25.0182 97.5572 25.9462 97.536 27.091V41.806C97.5583 42.9479 98.4797 43.8709 99.629 43.9028H112.776V55.7616H99.629C98.4952 55.7557 97.565 56.6517 97.536 57.7776V72.4926C97.536 73.6075 98.5068 74.4329 99.629 74.4329H112.776V80.2361H19.558ZM112.776 29.0162V39.8657H101.6V29.0162H112.776ZM112.776 59.7986V70.3958H101.6V59.7986H112.776Z" fill="#404040"/>
<path d="M59.7807 35.6983C59.3996 35.3197 58.8827 35.107 58.3438 35.107C57.8049 35.107 57.288 35.3197 56.9069 35.6983L53.2765 39.3046C48.6522 36.0398 42.4386 36.0999 37.8793 39.4537L34.2791 35.8774C33.4855 35.0891 32.1989 35.0891 31.4053 35.8774C30.6118 36.6657 30.6118 37.9438 31.4053 38.7321L35.0347 42.3384C31.8039 46.8566 31.8039 52.9105 35.0347 57.4286L31.4051 61.0342C30.6115 61.8225 30.6115 63.1006 31.4051 63.8889C32.1986 64.6772 33.4853 64.6772 34.2788 63.8889L37.8803 60.3113C42.4443 63.6497 48.6478 63.7091 53.2757 60.4587L56.7301 63.8889C57.5237 64.6772 58.8103 64.6772 59.6039 63.8889C60.3975 63.1006 60.3975 61.8225 59.6039 61.0342L56.1818 57.6345C59.6155 53.0296 59.6155 46.7362 56.1818 42.1313L59.7807 38.5537C60.162 38.1751 60.3763 37.6615 60.3763 37.126C60.3763 36.5904 60.162 36.0768 59.7807 35.6983ZM39.306 56.217C35.8325 52.7676 35.777 47.1911 39.1812 43.6742C42.5853 40.1572 48.1969 39.9935 51.8029 43.306C55.409 46.6185 55.683 52.1886 52.4193 55.8345C52.0314 56.0231 51.7145 56.3301 51.515 56.7105C47.9301 59.7096 42.6338 59.4955 39.306 56.217Z" fill="#404040"/>
</svg>
