<svg width="640" height="320" viewBox="0 0 640 320" fill="none" xmlns="http://www.w3.org/2000/svg">
<path d="M0 0H640V320H0V0Z" fill="#090D18"/>
<path d="M215.263 189.605L182.105 160.132L207.895 130.526H233.684V128.265L236.974 126.003V119.219L246.842 112.434V107.911L253.421 103.388V98.8651L260 94.3421H203.684L137.895 160.132L203.684 225.921H254.211V209.605L233.684 189.605H215.263Z" fill="#F8FAFC"/>
<path d="M217.632 217.763L160 160.132L207.697 112.434H246.842V107.911L253.421 103.388V98.8651L260 94.3421H203.684L137.895 160.132L203.684 225.921H254.211V217.763H217.632Z" fill="#D8E2EB"/>
<path d="M104.737 189.605L137.895 160.132L112.105 130.526H86.3158L60 94.3421H116.316L182.105 160.132L116.316 225.921H65.7895V209.605L86.3158 189.605H104.737Z" fill="#08A1DB"/>
<path d="M104.737 189.605L137.895 160.132L112.105 130.526H86.3158L73.1579 112.434H112.303L160 160.132L102.368 217.763H65.7895L65.7895 209.605L86.3158 189.605H104.737Z" fill="#0093C8"/>
<path d="M260 94.3421H203.684L207.895 112.434V126.003L207.895 130.526H233.684V128.265L236.974 126.003V119.219L246.842 112.434V107.911L253.421 103.388V98.8651L260 94.3421Z" fill="#C80000"/>
<path d="M205.789 103.388L207.895 112.434V126.003L236.974 126.003V119.219L246.842 112.434V107.911L253.421 103.388L205.789 103.388Z" fill="#B4281F"/>
<path d="M246.842 112.434H207.895V126.003L236.974 126.003V119.219L246.842 112.434Z" fill="#932517"/>
<path d="M80.3125 139.375C80.3125 138.512 81.0121 137.812 81.875 137.812H237.812C238.675 137.812 239.375 138.512 239.375 139.375V180.625C239.375 181.488 238.675 182.188 237.812 182.188H81.875C81.0121 182.188 80.3125 181.488 80.3125 180.625V139.375Z" fill="#090D18"/>
<path d="M93.0742 143.438L96.4157 156.797H96.604L99.9455 143.438H106.44L101.922 159.094L106.77 176.25H100.087L96.604 162.188H96.4157L92.933 176.25H86.25L91.0976 159.094L86.5794 143.438H93.0742Z" fill="white"/>
<path d="M109.637 176.25V143.438H123.05C124.587 144 125.952 144.984 127.144 146.391C128.337 147.797 128.933 149.5 128.933 151.5C128.933 155.031 127.772 157.5 125.45 158.906V159.094C128.337 160.687 129.78 163.187 129.78 166.594C129.78 170.5 127.787 173.719 123.803 176.25H109.637ZM116.037 156.984H120.697C122.077 156.141 122.767 154.859 122.767 153.141C122.767 151.422 122.124 150.063 120.838 149.062H116.037V156.984ZM116.037 170.812H120.885C121.45 170.406 121.952 169.766 122.391 168.891C122.861 168.016 123.097 167.141 123.097 166.266C123.097 165.391 122.909 164.594 122.532 163.875C122.156 163.156 121.685 162.625 121.12 162.281H116.037V170.812Z" fill="white"/>
<path d="M143.873 176.25H137.002V165.328L130.036 143.438H136.437L139.355 153.422L140.343 159.188H140.531L141.52 153.422L144.438 143.438H150.838L143.873 165.328V176.25Z" fill="white"/>
<path d="M158.434 149.062H151.327V143.438H171.941V149.062H164.834V176.25H158.434V149.062Z" fill="white"/>
<path d="M174.671 176.25V143.438H191.567V149.062H181.119V156.891H190.437V162.328H181.119V170.812H191.755V176.25H174.671Z" fill="white"/>
<path d="M195.399 143.438H207.918C209.895 144.094 211.573 145.313 212.954 147.094C214.366 148.844 215.072 151 215.072 153.562C215.072 157.75 213.409 160.828 210.083 162.797L214.836 176.25H208.247L204.247 164.297H201.753V176.25H195.399V143.438ZM201.753 149.062V159.047H205.8C206.333 158.922 206.914 158.391 207.541 157.453C208.2 156.484 208.53 155.359 208.53 154.078C208.53 152.797 208.247 151.672 207.683 150.703C207.149 149.734 206.616 149.188 206.082 149.062H201.753Z" fill="white"/>
<path d="M221.483 143.438H232.779V149.062H223.742L223.601 149.344L231.131 163.031C232.669 165.781 233.438 167.875 233.438 169.312C233.438 172.469 232.386 174.781 230.284 176.25H217.812V170.812H227.555L227.696 170.531L219.224 155.391C218.001 153.203 217.389 151.422 217.389 150.047C217.389 146.797 218.754 144.594 221.483 143.438Z" fill="white"/>
<path d="M321.92 153.125V125.125H327.4V153.125H321.92Z" fill="white"/>
<path d="M332.256 144.205V136.885H329.496V132.685H332.256V127.125H337.576V132.685H340.856V136.885H337.576V145.485C337.576 147.112 337.856 148.258 338.416 148.925H340.856V153.125H335.176C333.763 151.818 332.909 150.405 332.616 148.885C332.376 147.605 332.256 146.045 332.256 144.205Z" fill="white"/>
<path d="M343.477 128.485V123.085H348.837V124.485C348.837 126.672 348.664 128.312 348.317 129.405C347.997 130.472 347.117 132.005 345.677 134.005L343.397 132.725C344.597 130.672 345.29 129.258 345.477 128.485H343.477Z" fill="white"/>
<path d="M351.767 132.685H360.607V136.885H354.367L358.167 142.525C359.874 144.952 360.82 146.618 361.007 147.525C361.114 147.952 361.167 148.392 361.167 148.845C361.167 150.738 360.46 152.165 359.047 153.125H348.847V148.925H356.167L351.887 142.645C351.7 142.352 351.407 141.938 351.007 141.405C350.634 140.872 350.34 140.445 350.127 140.125C349.914 139.778 349.767 139.525 349.687 139.365C349.607 139.205 349.5 139.005 349.367 138.765C349.234 138.498 349.14 138.272 349.087 138.085C348.98 137.578 348.927 137.165 348.927 136.845C348.927 134.898 349.874 133.512 351.767 132.685Z" fill="white"/>
<path d="M375.438 125.125V153.125H370.158V125.125H375.438Z" fill="white"/>
<path d="M378.868 153.125V132.685H384.148V153.125H378.868ZM378.868 125.125H384.148V130.525H378.868V125.125Z" fill="white"/>
<path d="M387.579 153.125V125.125H392.899V139.965H393.459L397.219 132.685H402.419L397.699 141.605L402.459 153.125H397.179L393.499 144.165H392.899V153.125H387.579Z" fill="white"/>
<path d="M412.835 136.885H409.835C409.435 137.365 409.102 138.032 408.835 138.885C408.595 139.738 408.475 140.565 408.475 141.365H414.195C414.248 140.565 414.142 139.738 413.875 138.885C413.608 138.005 413.262 137.338 412.835 136.885ZM418.275 148.925V153.125H408.115C406.248 151.872 404.928 150.325 404.155 148.485C403.408 146.618 403.035 144.738 403.035 142.845C403.035 138.472 404.688 135.085 407.995 132.685H414.475C416.262 133.992 417.475 135.378 418.115 136.845C418.755 138.312 419.075 139.792 419.075 141.285C419.075 142.778 418.955 144.058 418.715 145.125H408.755C408.835 145.738 409.062 146.445 409.435 147.245C409.835 148.018 410.262 148.578 410.715 148.925H418.275Z" fill="white"/>
<path d="M437.485 132.685H442.765V148.925H445.565C446.445 147.512 446.885 145.565 446.885 143.085V132.685H452.205V143.325C452.205 147.832 450.952 151.098 448.445 153.125H445.125C443.072 153.125 441.379 152.512 440.045 151.285C438.712 152.512 437.072 153.125 435.125 153.125H431.805C429.299 151.365 428.045 148.098 428.045 143.325V132.685H433.365V143.325C433.365 145.698 433.792 147.565 434.645 148.925H437.485V132.685Z" fill="white"/>
<path d="M464.554 136.885H461.554C461.154 137.365 460.82 138.032 460.554 138.885C460.314 139.738 460.194 140.565 460.194 141.365H465.914C465.967 140.565 465.86 139.738 465.594 138.885C465.327 138.005 464.98 137.338 464.554 136.885ZM469.994 148.925V153.125H459.834C457.967 151.872 456.647 150.325 455.874 148.485C455.127 146.618 454.754 144.738 454.754 142.845C454.754 138.472 456.407 135.085 459.714 132.685H466.194C467.98 133.992 469.194 135.378 469.834 136.845C470.474 138.312 470.794 139.792 470.794 141.285C470.794 142.778 470.674 144.058 470.434 145.125H460.474C460.554 145.738 460.78 146.445 461.154 147.245C461.554 148.018 461.98 148.578 462.434 148.925H469.994Z" fill="white"/>
<path d="M471.836 128.485V123.085H477.196V124.485C477.196 126.672 477.023 128.312 476.676 129.405C476.356 130.472 475.476 132.005 474.036 134.005L471.756 132.725C472.956 130.672 473.65 129.258 473.836 128.485H471.836Z" fill="white"/>
<path d="M478.947 153.125V132.685H482.747L483.747 134.845C484.814 133.405 486.161 132.685 487.788 132.685H489.348V138.045H484.268V153.125H478.947Z" fill="white"/>
<path d="M500.14 136.885H497.14C496.74 137.365 496.406 138.032 496.14 138.885C495.9 139.738 495.78 140.565 495.78 141.365H501.5C501.553 140.565 501.446 139.738 501.18 138.885C500.913 138.005 500.566 137.338 500.14 136.885ZM505.58 148.925V153.125H495.42C493.553 151.872 492.233 150.325 491.46 148.485C490.713 146.618 490.34 144.738 490.34 142.845C490.34 138.472 491.993 135.085 495.3 132.685H501.78C503.566 133.992 504.78 135.378 505.42 136.845C506.06 138.312 506.38 139.792 506.38 141.285C506.38 142.778 506.26 144.058 506.02 145.125H496.06C496.14 145.738 496.366 146.445 496.74 147.245C497.14 148.018 497.566 148.578 498.02 148.925H505.58Z" fill="white"/>
<path d="M324.48 169.188H334.08V173.988H326.4L326.28 174.228L332.68 185.908C333.987 188.254 334.64 190.041 334.64 191.268C334.64 193.961 333.747 195.934 331.96 197.188H321.36V192.547H329.64L329.76 192.307L322.56 179.387C321.52 177.521 321 176.001 321 174.827C321 172.054 322.16 170.174 324.48 169.188Z" fill="white"/>
<path d="M344.348 192.547H347.708C348.294 191.907 348.708 191.268 348.948 190.628C349.214 189.961 349.348 188.988 349.348 187.708V169.188H354.828V185.707C354.828 187.067 354.788 188.134 354.708 188.908C354.654 189.654 354.495 190.574 354.228 191.667C353.775 193.614 352.521 195.454 350.468 197.188H341.588C339.534 195.508 338.281 193.667 337.828 191.667C337.428 190.041 337.228 188.054 337.228 185.707V169.188H342.708V187.708C342.708 188.988 342.828 189.961 343.068 190.628C343.334 191.268 343.761 191.907 344.348 192.547Z" fill="white"/>
<path d="M363.882 173.988V183.988H367.443C368.909 182.788 369.642 181.028 369.642 178.708C369.642 177.721 369.443 176.788 369.043 175.908C368.669 175.028 368.216 174.388 367.682 173.988H363.882ZM358.483 197.188V169.188H369.323C371.136 169.988 372.562 171.214 373.602 172.868C374.669 174.521 375.202 176.454 375.202 178.668C375.202 180.854 374.656 182.881 373.562 184.747C372.469 186.614 370.856 187.934 368.723 188.708H363.882V197.188H358.483Z" fill="white"/>
<path d="M378.131 197.188V169.188H392.491V173.988H383.611V180.667H391.531V185.307H383.611V192.547H392.651V197.188H378.131Z" fill="white"/>
<path d="M395.748 169.188H406.388C408.068 169.748 409.495 170.787 410.668 172.307C411.868 173.801 412.468 175.641 412.468 177.827C412.468 181.401 411.055 184.027 408.228 185.707L412.268 197.188H406.668L403.268 186.987H401.148V197.188H395.748V169.188ZM401.148 173.988V182.507H404.588C405.041 182.401 405.535 181.947 406.068 181.147C406.628 180.321 406.908 179.361 406.908 178.268C406.908 177.174 406.668 176.214 406.188 175.387C405.735 174.561 405.281 174.094 404.828 173.988H401.148Z" fill="white"/>
<path d="M420.838 197.188H415.358V169.188H420.838V180.467H427.238V169.188H432.718V197.188H427.238V185.587H420.838V197.188Z" fill="white"/>
<path d="M443.488 192.547H446.848C447.435 191.907 447.848 191.268 448.088 190.628C448.355 189.961 448.488 188.988 448.488 187.708V169.188H453.968V185.707C453.968 187.067 453.928 188.134 453.848 188.908C453.795 189.654 453.635 190.574 453.368 191.667C452.915 193.614 451.662 195.454 449.608 197.188H440.728C438.675 195.508 437.422 193.667 436.968 191.667C436.568 190.041 436.368 188.054 436.368 185.707V169.188H441.848V187.708C441.848 188.988 441.968 189.961 442.208 190.628C442.475 191.268 442.902 191.907 443.488 192.547Z" fill="white"/>
<path d="M467.823 184.387L469.943 175.628L471.663 169.188H476.663L478.463 197.188H473.223L472.463 181.908H472.263L469.383 193.188H466.103L463.223 181.908H463.023L462.263 197.188H457.023L458.823 169.188H463.823L465.543 175.628L467.663 184.387H467.823Z" fill="white"/>
<path d="M493.606 197.188L492.766 192.747H486.446L485.606 197.188H480.166L485.566 169.188H493.846L498.966 197.188H493.606ZM489.526 174.387L487.966 183.708L487.086 188.467H492.086L491.166 183.708L489.606 174.387H489.526Z" fill="white"/>
<path d="M513.775 197.188L506.295 181.707L506.095 181.787L506.335 186.507V197.188H501.295V169.188H505.335L512.695 185.268L512.895 185.188L512.455 180.268V169.188H517.495V197.188H513.775Z" fill="white"/>
<path d="M522.094 191.787H526.974V197.188H522.094V191.787ZM522.094 187.547V185.747C522.094 183.454 522.681 180.841 523.854 177.908C524.254 176.894 524.507 176.228 524.614 175.908C524.747 175.588 524.814 175.241 524.814 174.867C524.814 174.387 524.561 174.147 524.054 174.147H520.614V169.188H527.294C528.521 169.694 529.387 170.441 529.894 171.427C530.401 172.414 530.654 173.294 530.654 174.068C530.654 174.814 530.561 175.494 530.374 176.107C530.214 176.694 530.054 177.161 529.894 177.507L528.134 180.707C527.361 182.254 526.974 183.988 526.974 185.908V187.547H522.094Z" fill="white"/>
<path d="M533.958 191.787H538.438V197.188H533.958V191.787ZM539.038 169.188L538.438 181.987V187.547H533.958V181.987L533.358 169.188H539.038Z" fill="white"/>
</svg>
