<svg width="47" height="65" viewBox="0 0 47 65" fill="none" xmlns="http://www.w3.org/2000/svg">
<g clip-path="url(#clip0_5931_63381)">
<path d="M30.7903 23.4846L24.3355 29.5296L18.3459 17.3705L21.4452 10.378C22.2297 8.97627 23.5097 8.97359 24.2942 10.378L30.7903 23.4846Z" fill="#A1A1AA"/>
<path d="M24.3355 29.5296L0.214844 52.1135L18.3459 17.3705L24.3355 29.5296Z" fill="#71717A"/>
<path d="M37.8501 14.2449C39.0032 13.1294 40.1954 13.5099 40.4992 15.0904L46.7777 51.8111L25.9648 64.3653C25.2364 64.7701 23.3077 64.9457 23.3077 64.9457C23.3077 64.9457 21.5472 64.7338 20.8762 64.3591L0.213867 52.1123L37.8501 14.2449Z" fill="#D4D4D8"/>
<path d="M18.3459 17.3705L0.214844 52.1135L8.29076 1.33535C8.58815 -0.246478 9.48279 -0.398813 10.281 0.997419L18.3459 17.3705Z" fill="#A1A1AA"/>
</g>
<defs>
<clipPath id="clip0_5931_63381">
<rect width="47" height="65" fill="white"/>
</clipPath>
</defs>
</svg>
