<svg width="50" height="53" viewBox="0 0 50 53" fill="none" xmlns="http://www.w3.org/2000/svg">
<g clip-path="url(#clip0_5931_63389)">
<path fill-rule="evenodd" clip-rule="evenodd" d="M49.626 12.0639C49.6444 12.132 49.6538 12.2023 49.654 12.2729V23.2449C49.654 23.3857 49.6168 23.524 49.5462 23.6459C49.4757 23.7677 49.3742 23.8688 49.252 23.9389L40.043 29.2409V39.7499C40.043 40.0359 39.891 40.2999 39.643 40.4439L20.42 51.5099C20.376 51.5349 20.328 51.5509 20.28 51.5679C20.262 51.5739 20.245 51.5849 20.226 51.5899C20.0916 51.6253 19.9504 51.6253 19.816 51.5899C19.794 51.5839 19.774 51.5719 19.753 51.5639C19.709 51.5479 19.663 51.5339 19.621 51.5099L0.402 40.4439C0.279907 40.3737 0.178461 40.2726 0.107885 40.1508C0.0373084 40.029 9.67394e-05 39.8907 0 39.7499L0 6.83387C0 6.76187 0.01 6.69187 0.028 6.62387C0.034 6.60087 0.048 6.57987 0.056 6.55687C0.071 6.51487 0.085 6.47187 0.107 6.43287C0.122 6.40687 0.144 6.38587 0.162 6.36187C0.185 6.32987 0.206 6.29687 0.233 6.26887C0.256 6.24587 0.286 6.22887 0.312 6.20887C0.341 6.18487 0.367 6.15887 0.4 6.13987L10.011 0.606871C10.1327 0.536852 10.2706 0.5 10.411 0.5C10.5514 0.5 10.6893 0.536852 10.811 0.606871L20.421 6.13987H20.423C20.455 6.15987 20.482 6.18487 20.511 6.20787C20.537 6.22787 20.566 6.24587 20.589 6.26787C20.617 6.29687 20.637 6.32987 20.661 6.36187C20.678 6.38587 20.701 6.40687 20.715 6.43287C20.738 6.47287 20.751 6.51487 20.767 6.55687C20.775 6.57987 20.789 6.60087 20.795 6.62487C20.8134 6.69302 20.8228 6.76328 20.823 6.83387V27.3929L28.831 22.7819V12.2719C28.831 12.2019 28.841 12.1309 28.859 12.0639C28.866 12.0399 28.879 12.0189 28.887 11.9959C28.903 11.9539 28.917 11.9109 28.939 11.8719C28.954 11.8459 28.976 11.8249 28.993 11.8009C29.017 11.7689 29.037 11.7359 29.065 11.7079C29.088 11.6849 29.117 11.6679 29.143 11.6479C29.173 11.6239 29.199 11.5979 29.231 11.5789L38.843 6.04587C38.9646 5.97575 39.1026 5.93885 39.243 5.93885C39.3834 5.93885 39.5214 5.97575 39.643 6.04587L49.253 11.5789C49.287 11.5989 49.313 11.6239 49.343 11.6469C49.368 11.6669 49.397 11.6849 49.42 11.7069C49.448 11.7359 49.468 11.7689 49.492 11.8009C49.51 11.8249 49.532 11.8459 49.546 11.8719C49.569 11.9109 49.582 11.9539 49.598 11.9959C49.607 12.0189 49.62 12.0399 49.626 12.0639ZM48.052 22.7819V13.6579L44.689 15.5939L40.043 18.2689V27.3929L48.053 22.7819H48.052ZM38.442 39.2869V30.1569L33.872 32.7669L20.822 40.2149V49.4309L38.442 39.2869ZM1.602 8.21887V39.2869L19.22 49.4299V40.2159L10.016 35.0069L10.013 35.0049L10.009 35.0029C9.978 34.9849 9.952 34.9589 9.923 34.9369C9.898 34.9169 9.869 34.9009 9.847 34.8789L9.845 34.8759C9.819 34.8509 9.801 34.8199 9.779 34.7919C9.759 34.7649 9.735 34.7419 9.719 34.7139L9.718 34.7109C9.7 34.6809 9.689 34.6449 9.676 34.6109C9.663 34.5809 9.646 34.5529 9.638 34.5209C9.628 34.4829 9.626 34.4419 9.622 34.4029C9.618 34.3729 9.61 34.3429 9.61 34.3129V34.3109V12.8299L4.965 10.1539L1.602 8.21887ZM10.412 2.22487L2.405 6.83387L10.41 11.4429L18.416 6.83287L10.41 2.22487H10.412ZM14.576 30.9889L19.221 28.3149V8.21887L15.858 10.1549L11.212 12.8299V32.9259L14.576 30.9889ZM39.243 7.66387L31.237 12.2729L39.243 16.8819L47.248 12.2719L39.243 7.66387ZM38.442 18.2689L33.796 15.5939L30.433 13.6579V22.7819L35.078 25.4559L38.442 27.3929V18.2689ZM20.02 38.8299L31.763 32.1259L37.633 28.7759L29.633 24.1699L20.422 29.4729L12.027 34.3059L20.02 38.8299Z" fill="#A1A1AA"/>
</g>
<defs>
<clipPath id="clip0_5931_63389">
<rect width="50" height="52" fill="white" transform="translate(0 0.5)"/>
</clipPath>
</defs>
</svg>
