<svg width="61" height="41" viewBox="0 0 61 41" fill="none" xmlns="http://www.w3.org/2000/svg">
<g clip-path="url(#clip0_5931_63345)">
<path d="M34.2215 41H56.8978C57.6181 41.0001 58.3256 40.8107 58.9494 40.4508C59.5731 40.0909 60.091 39.5733 60.451 38.9499C60.811 38.3265 61.0003 37.6195 61 36.8998C60.9997 36.1801 60.8097 35.4732 60.4492 34.8501L45.2205 8.49308C44.8605 7.86988 44.3427 7.35232 43.7191 6.99248C43.0955 6.63271 42.3881 6.44322 41.6679 6.44322C40.9479 6.44322 40.2404 6.63271 39.6169 6.99248C38.9932 7.35232 38.4754 7.86988 38.1155 8.49308L34.2215 15.2369L26.6083 2.04952C26.248 1.42639 25.73 0.908901 25.1062 0.549126C24.4824 0.18942 23.7749 0 23.0547 0C22.3345 0 21.6269 0.18942 21.0032 0.549126C20.3794 0.908901 19.8613 1.42639 19.5011 2.04952L0.550795 34.8501C0.190281 35.4732 0.000313767 36.1801 3.88352e-07 36.8998C-0.00031299 37.6195 0.189038 38.3265 0.54901 38.9499C0.908981 39.5733 1.42688 40.0909 2.05062 40.4508C2.67435 40.8107 3.38193 41.0001 4.10218 41H18.3365C23.9763 41 28.1354 38.5246 30.9972 33.6952L37.9453 21.6716L41.6669 15.2369L52.836 34.5653H37.9453L34.2215 41ZM18.1044 34.5587L8.17068 34.5564L23.0613 8.78671L30.4912 21.6716L25.5166 30.2836C23.616 33.4171 21.4569 34.5587 18.1044 34.5587Z" fill="#A1A1AA"/>
</g>
<defs>
<clipPath id="clip0_5931_63345">
<rect width="61" height="41" fill="white"/>
</clipPath>
</defs>
</svg>
