<svg width="57" height="64" viewBox="0 0 57 64" fill="none" xmlns="http://www.w3.org/2000/svg">
<g clip-path="url(#clip0_5931_63377)">
<path d="M49.255 12.484C49.208 12.201 48.977 11.984 48.691 11.957C48.466 11.92 43.521 11.581 43.521 11.581L39.751 7.811C39.411 7.435 38.659 7.545 38.375 7.623C38.338 7.623 37.623 7.848 36.453 8.228C35.316 4.938 33.303 1.922 29.757 1.922H29.454C28.438 0.605 27.194 0 26.144 0C17.888 0.037 13.954 10.333 12.71 15.594L6.94 17.364C5.17 17.928 5.105 17.969 4.867 19.657L0 57.175L36.468 64L56.231 59.74C56.231 59.703 49.291 12.842 49.255 12.484ZM34.431 8.86C33.514 9.163 32.468 9.465 31.341 9.805V9.125C31.3744 7.42816 31.1201 5.73792 30.589 4.126C32.437 4.41 33.679 6.483 34.432 8.859L34.431 8.86ZM28.363 4.562C28.966 6.34 29.246 8.212 29.189 10.089V10.429L22.814 12.392C24.062 7.732 26.363 5.43 28.363 4.562ZM25.913 2.269C26.2901 2.27702 26.6568 2.39483 26.968 2.608C24.308 3.846 21.496 6.974 20.29 13.235L15.245 14.781C16.668 10.03 19.988 2.26 25.91 2.26L25.913 2.269Z" fill="#A1A1AA"/>
<path d="M48.691 11.957C48.466 11.92 43.521 11.581 43.521 11.581L39.751 7.811C39.611 7.669 39.421 7.588 39.224 7.586L36.472 64L56.235 59.74L49.255 12.522C49.2324 12.3806 49.1657 12.2499 49.0644 12.1486C48.9631 12.0473 48.8324 11.9806 48.691 11.958V11.957Z" fill="#71717A"/>
<path d="M29.758 22.89L27.304 30.132C25.821 29.414 24.2 29.028 22.552 28.999C18.704 28.999 18.516 31.411 18.516 32.017C18.516 35.315 27.152 36.581 27.152 44.35C27.152 50.46 23.267 54.38 18.052 54.38C11.792 54.38 8.585 50.495 8.585 50.495L10.25 44.945C10.25 44.945 13.53 47.775 16.323 47.775C16.6569 47.7877 16.9899 47.7326 17.3018 47.6129C17.6138 47.4932 17.8982 47.3115 18.1379 47.0787C18.3776 46.846 18.5676 46.567 18.6963 46.2587C18.8251 45.9503 18.8899 45.6191 18.887 45.285C18.887 40.945 11.797 40.758 11.797 33.667C11.797 27.705 16.095 21.897 24.731 21.897C28.125 21.947 29.749 22.887 29.749 22.887L29.758 22.89Z" fill="white"/>
</g>
<defs>
<clipPath id="clip0_5931_63377">
<rect width="56.235" height="64" fill="white"/>
</clipPath>
</defs>
</svg>
