<svg width="110" height="29" viewBox="0 0 110 29" fill="none" xmlns="http://www.w3.org/2000/svg">
<g clip-path="url(#clip0_5931_63357)">
<path d="M35.519 11.4493C35.519 9.45229 33.6001 7.33128 30.2796 7.33128C26.5508 7.33128 22.4545 10.0996 21.8285 15.6225C21.1889 21.2004 24.6183 23.6795 28.075 23.6795C31.5316 23.6795 33.3416 22.316 35.1924 20.498C33.6001 18.4734 31.5452 19.41 31.1506 19.6166C30.7151 19.8369 30.1571 20.1399 29.014 20.1399C27.6803 20.1399 26.3194 19.5339 26.3194 17.0135C34.8658 16.1596 35.519 13.4464 35.519 11.4493ZM31.2867 11.7799C31.2322 12.3997 30.9873 13.4602 26.6597 14.0524C27.5714 10.7745 29.3134 10.5266 30.1163 10.5266C30.8648 10.5266 31.3411 11.1188 31.2867 11.7799ZM16.8069 12.317C16.8069 12.317 14.9697 18.1567 14.82 18.6387C14.7656 18.1429 13.4183 7.66183 13.4183 7.66183C10.2883 7.66183 8.61438 9.92056 7.7298 12.3032C7.7298 12.3032 5.49796 18.1567 5.30744 18.6525C5.29383 18.198 4.96722 12.3721 4.96722 12.3721C4.77669 9.45229 2.13658 7.6756 0 7.6756L2.58567 23.5556C5.8654 23.5418 7.63454 21.2968 8.55994 18.9142C8.55994 18.9142 10.5332 13.7494 10.6149 13.5152C10.6285 13.7356 12.0302 23.5556 12.0302 23.5556C15.3235 23.5556 17.0927 21.4484 18.0453 19.1483L22.6587 7.6756C19.4062 7.6756 17.6915 9.92056 16.8069 12.317ZM47.6036 7.30374C45.5759 7.30374 44.0245 8.41933 42.7181 10.0583V10.0445L43.8884 0.5C41.1939 0.5 39.0028 2.86891 38.581 6.39474L36.5397 23.4316C38.0911 23.4316 39.7377 22.9771 40.6223 21.8202C41.4116 22.8532 42.5956 23.6795 44.3511 23.6795C48.8965 23.6795 52.0129 18.3357 52.0129 13.3224C51.9856 8.74988 49.7946 7.30374 47.6036 7.30374ZM47.1817 15.4985C46.7054 18.2944 45.1676 20.195 43.6843 20.195C42.1873 20.195 41.5477 19.5202 41.5477 19.5202C41.8335 17.0686 42.0104 15.5674 42.5547 14.2727C43.0991 12.9781 44.3919 10.9122 45.7392 10.9122C47.0593 10.9122 47.658 12.6889 47.1817 15.4985ZM63.3626 7.6756H60.1918L60.2054 7.51033C60.4231 5.41687 60.913 4.31505 62.5325 4.13601C63.6348 4.02582 64.1247 3.44737 64.2472 2.81382C64.3424 2.318 64.6418 0.596409 64.6418 0.596409C58.2729 0.555091 56.2724 3.33719 55.7553 7.57919L55.7417 7.6756H55.6736C54.6394 7.6756 53.4962 8.86006 53.3057 10.3613L53.2377 10.9122H55.3606L53.5779 25.8143L53.0335 28.4862C53.1016 28.4862 53.1832 28.5 53.2513 28.5C56.2316 28.3898 58.1368 26.0071 58.5587 22.5502L59.9468 10.9122H60.9402C61.9201 10.9122 63.0632 9.92056 63.2674 8.26783L63.3626 7.6756ZM79.8565 7.40015C76.1957 7.40015 72.7391 10.1272 71.6776 14.4105C70.6161 18.6938 72.2219 23.7622 77.611 23.7622C82.9865 23.7622 86.0893 18.4872 86.0893 14.0937C86.0893 9.72774 83.1634 7.40015 79.8565 7.40015ZM81.3399 15.3608C81.1493 17.3028 80.3056 20.2501 77.9921 20.2501C75.665 20.2501 75.9916 16.8069 76.2229 15.168C76.4679 13.4188 77.4341 10.926 79.5163 10.926C81.3807 10.926 81.5576 13.1709 81.3399 15.3608ZM104.175 12.317C104.175 12.317 102.338 18.1567 102.189 18.6387C102.134 18.1429 100.787 7.66183 100.787 7.66183C97.6568 7.66183 95.9829 9.92056 95.0984 12.3032C95.0984 12.3032 92.8665 18.1567 92.676 18.6525C92.6624 18.198 92.3358 12.3721 92.3358 12.3721C92.1452 9.45229 89.5051 7.6756 87.3686 7.6756L89.9406 23.5556C93.2203 23.5418 94.9895 21.2968 95.9149 18.9142C95.9149 18.9142 97.8882 13.7494 97.9562 13.5152C97.9698 13.7356 99.3715 23.5556 99.3715 23.5556C102.665 23.5556 104.434 21.4484 105.387 19.1483L110 7.6756C106.761 7.6756 105.046 9.92056 104.175 12.317ZM66.3566 0.596409L63.6892 22.3711L63.1449 25.0568C63.2129 25.0568 63.2946 25.0706 63.3626 25.0706C66.2341 25.0293 68.2754 22.4813 68.6564 19.2723L70.1942 6.78037C70.6569 2.96532 68.4115 0.596409 66.3566 0.596409Z" fill="#A1A1AA"/>
</g>
<defs>
<clipPath id="clip0_5931_63357">
<rect width="110" height="29" fill="white"/>
</clipPath>
</defs>
</svg>
